<mxfile host="app.diagrams.net" agent="Mozilla/5.0 (Windows NT 10.0; Win64; x64) AppleWebKit/537.36 (KHTML, like Gecko) Chrome/134.0.0.0 Safari/537.36" version="26.2.5">
  <diagram name="Page-1" id="o7U8anEGXOo_Qf-L1rWv">
    <mxGraphModel dx="5180" dy="4073" grid="1" gridSize="10" guides="1" tooltips="1" connect="1" arrows="1" fold="1" page="1" pageScale="1" pageWidth="850" pageHeight="1100" math="0" shadow="0">
      <root>
        <mxCell id="0" />
        <mxCell id="1" parent="0" />
        <mxCell id="rGRRH7rSquDJhVR4HHmK-4" value="The two diamond shapes are for the&amp;nbsp;&lt;span style=&quot;background-color: transparent; color: light-dark(rgb(0, 0, 0), rgb(255, 255, 255));&quot;&gt;decisions&lt;/span&gt;&lt;span style=&quot;background-color: transparent; color: light-dark(rgb(0, 0, 0), rgb(255, 255, 255));&quot;&gt;&amp;nbsp;in&lt;/span&gt;&lt;span style=&quot;background-color: transparent; color: light-dark(rgb(0, 0, 0), rgb(255, 255, 255));&quot;&gt;&amp;nbsp;which&lt;/span&gt;&lt;div&gt;&lt;span style=&quot;background-color: transparent; color: light-dark(rgb(0, 0, 0), rgb(255, 255, 255));&quot;&gt;&amp;nbsp;one where Non-expert&amp;nbsp;&lt;/span&gt;&lt;span style=&quot;background-color: transparent; color: light-dark(rgb(0, 0, 0), rgb(255, 255, 255));&quot;&gt;health worker&lt;/span&gt;&lt;span style=&quot;background-color: transparent; color: light-dark(rgb(0, 0, 0), rgb(255, 255, 255));&quot;&gt;&amp;nbsp;decides for the&amp;nbsp;&lt;/span&gt;&lt;span style=&quot;background-color: transparent; color: light-dark(rgb(0, 0, 0), rgb(255, 255, 255));&quot;&gt;patient&lt;/span&gt;&lt;/div&gt;&lt;div&gt;&lt;span style=&quot;background-color: transparent; color: light-dark(rgb(0, 0, 0), rgb(255, 255, 255));&quot;&gt;&amp;nbsp;&lt;/span&gt;&lt;span style=&quot;background-color: transparent; color: light-dark(rgb(0, 0, 0), rgb(255, 255, 255));&quot;&gt;record whether it&lt;/span&gt;&lt;span style=&quot;background-color: transparent; color: light-dark(rgb(0, 0, 0), rgb(255, 255, 255));&quot;&gt;&amp;nbsp;is present or not while&amp;nbsp;&lt;/span&gt;&lt;span style=&quot;background-color: transparent; color: light-dark(rgb(0, 0, 0), rgb(255, 255, 255));&quot;&gt;in the second one&lt;/span&gt;&lt;/div&gt;&lt;div&gt;&lt;span style=&quot;background-color: transparent; color: light-dark(rgb(0, 0, 0), rgb(255, 255, 255));&quot;&gt;&amp;nbsp;he decides&amp;nbsp;&lt;/span&gt;&lt;span style=&quot;background-color: transparent; color: light-dark(rgb(0, 0, 0), rgb(255, 255, 255));&quot;&gt;whether&amp;nbsp;&lt;/span&gt;&lt;span style=&quot;background-color: transparent; color: light-dark(rgb(0, 0, 0), rgb(255, 255, 255));&quot;&gt;report is normal or not&amp;nbsp;&lt;/span&gt;&lt;/div&gt;&lt;div&gt;&lt;span style=&quot;background-color: transparent; color: light-dark(rgb(0, 0, 0), rgb(255, 255, 255));&quot;&gt;generated by AI&lt;/span&gt;&lt;/div&gt;" style="whiteSpace=wrap;html=1;shape=mxgraph.basic.oval_callout;direction=east;flipH=1;" vertex="1" parent="1">
          <mxGeometry x="-1040" y="-640" width="389" height="130" as="geometry" />
        </mxCell>
        <mxCell id="U05u6-LTrtxGhppZVjrv-1" value="" style="verticalLabelPosition=bottom;verticalAlign=top;html=1;shadow=0;dashed=0;strokeWidth=1;shape=mxgraph.android.tab2;strokeColor=#c0c0c0;direction=north;" parent="1" vertex="1">
          <mxGeometry x="90" y="130" width="690" height="540" as="geometry" />
        </mxCell>
        <mxCell id="U05u6-LTrtxGhppZVjrv-2" value="" style="html=1;strokeWidth=1;shadow=0;dashed=0;shape=mxgraph.ios7ui.appBar;fillColor=#ffffff;gradientColor=none;sketch=0;hachureGap=4;pointerEvents=0;fontFamily=Architects Daughter;fontSource=https%3A%2F%2Ffonts.googleapis.com%2Fcss%3Ffamily%3DArchitects%2BDaughter;fontSize=20;" parent="1" vertex="1">
          <mxGeometry x="150" y="200" width="570" height="15" as="geometry" />
        </mxCell>
        <mxCell id="U05u6-LTrtxGhppZVjrv-3" value="CARRIER" style="shape=rect;align=left;fontSize=8;spacingLeft=24;fontSize=4;fontColor=#aaaaaa;strokeColor=none;fillColor=none;spacingTop=0;sketch=0;hachureGap=4;pointerEvents=0;fontFamily=Helvetica;html=1;" parent="U05u6-LTrtxGhppZVjrv-2" vertex="1">
          <mxGeometry y="0.5" width="50" height="13" relative="1" as="geometry">
            <mxPoint y="-6.5" as="offset" />
          </mxGeometry>
        </mxCell>
        <mxCell id="U05u6-LTrtxGhppZVjrv-4" value="11:55PM" style="shape=rect;fontSize=8;fontColor=#aaaaaa;strokeColor=none;fillColor=none;spacingTop=0;sketch=0;hachureGap=4;pointerEvents=0;fontFamily=Helvetica;html=1;" parent="U05u6-LTrtxGhppZVjrv-2" vertex="1">
          <mxGeometry x="0.5" y="0.5" width="50" height="13" relative="1" as="geometry">
            <mxPoint x="-25" y="-6.5" as="offset" />
          </mxGeometry>
        </mxCell>
        <mxCell id="U05u6-LTrtxGhppZVjrv-5" value="98%" style="shape=rect;align=right;fontSize=8;spacingRight=19;fontSize=6;fontColor=#aaaaaa;strokeColor=none;fillColor=none;spacingTop=0;sketch=0;hachureGap=4;pointerEvents=0;fontFamily=Helvetica;html=1;" parent="U05u6-LTrtxGhppZVjrv-2" vertex="1">
          <mxGeometry x="1" y="0.5" width="45" height="13" relative="1" as="geometry">
            <mxPoint x="-45" y="-6.5" as="offset" />
          </mxGeometry>
        </mxCell>
        <UserObject label="" id="U05u6-LTrtxGhppZVjrv-6">
          <mxCell style="verticalLabelPosition=bottom;verticalAlign=top;html=1;shadow=0;dashed=0;strokeWidth=1;shape=mxgraph.android.contact_badge_normal;sketch=0;" parent="1" vertex="1">
            <mxGeometry x="690" y="220" width="20" height="20" as="geometry" />
          </mxCell>
        </UserObject>
        <mxCell id="U05u6-LTrtxGhppZVjrv-7" value="" style="shape=image;html=1;verticalAlign=top;verticalLabelPosition=bottom;labelBackgroundColor=#ffffff;imageAspect=0;aspect=fixed;image=https://cdn4.iconfinder.com/data/icons/basic-user-interface-2/512/User_Interface-33-128.png" parent="1" vertex="1">
          <mxGeometry x="150" y="210" width="40" height="40" as="geometry" />
        </mxCell>
        <mxCell id="U05u6-LTrtxGhppZVjrv-8" value="CHEST RAY" style="text;html=1;align=center;verticalAlign=middle;whiteSpace=wrap;rounded=0;" parent="1" vertex="1">
          <mxGeometry x="190" y="215" width="80" height="30" as="geometry" />
        </mxCell>
        <mxCell id="U05u6-LTrtxGhppZVjrv-9" value="&lt;b&gt;&lt;u&gt;Home&lt;/u&gt;&amp;nbsp;&lt;/b&gt;&amp;nbsp; &amp;nbsp; &amp;nbsp; &amp;nbsp; &amp;nbsp; &amp;nbsp; &amp;nbsp; &amp;nbsp; Patient Records&amp;nbsp; &amp;nbsp; &amp;nbsp; &amp;nbsp; &amp;nbsp; &amp;nbsp; &amp;nbsp; &amp;nbsp; Clinician Reviews" style="rounded=1;html=1;shadow=0;dashed=0;whiteSpace=wrap;fontSize=10;fillColor=#CCCCCC;align=center;strokeColor=#666666;fontColor=#333333;strokeWidth=2;" parent="1" vertex="1">
          <mxGeometry x="160" y="245" width="550" height="26.88" as="geometry" />
        </mxCell>
        <mxCell id="U05u6-LTrtxGhppZVjrv-10" value="&lt;h1 style=&quot;margin-top: 0px;&quot;&gt;Welcome!&lt;/h1&gt;&lt;p&gt;Lorem ipsum dolor sit amet, consectetur adipisicing elit, sed do eiusmod tempor incididunt ut labore et dolore magna aliqua.&lt;/p&gt;" style="text;html=1;whiteSpace=wrap;overflow=hidden;rounded=0;" parent="1" vertex="1">
          <mxGeometry x="160" y="290" width="210" height="110" as="geometry" />
        </mxCell>
        <mxCell id="U05u6-LTrtxGhppZVjrv-11" value="" style="html=1;shadow=0;dashed=0;shape=mxgraph.ios.fancyRRect;rSize=8;strokeColor=#dddddd;fillColor=#FFFFFF;gradientColor=none;opacity=80;fontColor=#ffffff;fontSize=8;whiteSpace=wrap;align=center;sketch=0;hachureGap=4;pointerEvents=0;fontFamily=Helvetica;" parent="1" vertex="1">
          <mxGeometry x="570" y="310" width="140" height="50" as="geometry" />
        </mxCell>
        <mxCell id="U05u6-LTrtxGhppZVjrv-12" value="" style="html=1;shadow=0;dashed=0;shape=mxgraph.ios.anchor;fontSize=12;fontColor=#ffffff;whiteSpace=wrap;resizeWidth=1;sketch=0;hachureGap=4;pointerEvents=0;fontFamily=Helvetica;" parent="U05u6-LTrtxGhppZVjrv-11" vertex="1">
          <mxGeometry width="140" height="25" relative="1" as="geometry" />
        </mxCell>
        <UserObject label="Check&amp;nbsp; Reviews" id="U05u6-LTrtxGhppZVjrv-13">
          <mxCell style="html=1;shadow=0;dashed=0;shape=mxgraph.ios.rrect;rSize=3;fontSize=8;fontColor=#ffffff;strokeColor=#ffffff;fillColor=#999999;gradientColor=none;opacity=80;whiteSpace=wrap;sketch=0;hachureGap=4;pointerEvents=0;fontFamily=Helvetica;" parent="U05u6-LTrtxGhppZVjrv-11" vertex="1">
            <mxGeometry x="0.5" y="1" width="80" height="11" relative="1" as="geometry">
              <mxPoint x="-40" y="-20" as="offset" />
            </mxGeometry>
          </mxCell>
        </UserObject>
        <mxCell id="U05u6-LTrtxGhppZVjrv-14" value="&lt;font&gt;&lt;span style=&quot;font-size: 8px;&quot;&gt;Check the reviews oof the clinician&lt;/span&gt;&lt;/font&gt;" style="text;html=1;align=center;verticalAlign=middle;whiteSpace=wrap;rounded=0;fontColor=#1A1A1A;" parent="U05u6-LTrtxGhppZVjrv-11" vertex="1">
          <mxGeometry x="5" width="130" height="30" as="geometry" />
        </mxCell>
        <mxCell id="U05u6-LTrtxGhppZVjrv-15" value="" style="shape=image;html=1;verticalAlign=top;verticalLabelPosition=bottom;labelBackgroundColor=#ffffff;imageAspect=0;aspect=fixed;image=https://cdn4.iconfinder.com/data/icons/app-custom-ui-1/48/Picture-128.png" parent="1" vertex="1">
          <mxGeometry x="375" y="290" width="120" height="120" as="geometry" />
        </mxCell>
        <mxCell id="U05u6-LTrtxGhppZVjrv-16" value="" style="rounded=1;whiteSpace=wrap;html=1;" parent="1" vertex="1">
          <mxGeometry x="144" y="550" width="582" height="60" as="geometry" />
        </mxCell>
        <mxCell id="U05u6-LTrtxGhppZVjrv-17" value="&lt;font style=&quot;font-size: 17px;&quot;&gt;&lt;b&gt;&lt;i&gt;CHEST RAY&lt;/i&gt;&lt;/b&gt;&lt;/font&gt;" style="text;html=1;align=center;verticalAlign=middle;whiteSpace=wrap;rounded=0;" parent="1" vertex="1">
          <mxGeometry x="172.5" y="557.5" width="115" height="30" as="geometry" />
        </mxCell>
        <mxCell id="U05u6-LTrtxGhppZVjrv-18" value="" style="shape=image;html=1;verticalAlign=top;verticalLabelPosition=bottom;labelBackgroundColor=#ffffff;imageAspect=0;aspect=fixed;image=https://cdn4.iconfinder.com/data/icons/app-custom-ui-1/48/Picture-128.png" parent="1" vertex="1">
          <mxGeometry x="160" y="565" width="15" height="15" as="geometry" />
        </mxCell>
        <mxCell id="U05u6-LTrtxGhppZVjrv-19" value="&lt;font style=&quot;font-size: 9px;&quot;&gt;CONTACT&lt;/font&gt;" style="text;html=1;align=center;verticalAlign=middle;whiteSpace=wrap;rounded=0;" parent="1" vertex="1">
          <mxGeometry x="630" y="560" width="50" height="20" as="geometry" />
        </mxCell>
        <mxCell id="U05u6-LTrtxGhppZVjrv-20" value="" style="verticalLabelPosition=top;html=1;shadow=0;dashed=0;verticalAlign=bottom;strokeWidth=1;shape=mxgraph.ios.iPin;fillColor2=#00dd00;fillColor3=#004400;strokeColor=#006600;" parent="1" vertex="1">
          <mxGeometry x="520" y="570" height="10" as="geometry" />
        </mxCell>
        <mxCell id="U05u6-LTrtxGhppZVjrv-21" value="" style="shape=image;html=1;verticalAlign=top;verticalLabelPosition=bottom;labelBackgroundColor=#ffffff;imageAspect=0;aspect=fixed;image=https://cdn1.iconfinder.com/data/icons/iconnice-vector-icon/31/Vector-icons_23-128.png" parent="1" vertex="1">
          <mxGeometry x="615" y="565" width="10" height="10" as="geometry" />
        </mxCell>
        <mxCell id="U05u6-LTrtxGhppZVjrv-22" value="" style="shape=image;html=1;verticalAlign=top;verticalLabelPosition=bottom;labelBackgroundColor=#ffffff;imageAspect=0;aspect=fixed;image=https://cdn1.iconfinder.com/data/icons/iconnice-vector-icon/31/Vector-icons_23-128.png" parent="1" vertex="1">
          <mxGeometry x="615" y="585" width="10" height="10" as="geometry" />
        </mxCell>
        <mxCell id="U05u6-LTrtxGhppZVjrv-23" value="&lt;font size=&quot;1&quot;&gt;EMAIL&lt;/font&gt;" style="text;html=1;align=center;verticalAlign=middle;whiteSpace=wrap;rounded=0;" parent="1" vertex="1">
          <mxGeometry x="630" y="577.5" width="40" height="20" as="geometry" />
        </mxCell>
        <mxCell id="U05u6-LTrtxGhppZVjrv-24" value="&lt;font size=&quot;1&quot;&gt;Contact Us&lt;/font&gt;" style="text;html=1;align=center;verticalAlign=middle;whiteSpace=wrap;rounded=0;" parent="1" vertex="1">
          <mxGeometry x="380" y="570" width="60" height="20" as="geometry" />
        </mxCell>
        <mxCell id="U05u6-LTrtxGhppZVjrv-25" value="&lt;font size=&quot;1&quot;&gt;About Us&lt;/font&gt;" style="text;html=1;align=center;verticalAlign=middle;whiteSpace=wrap;rounded=0;" parent="1" vertex="1">
          <mxGeometry x="510" y="570" width="60" height="20" as="geometry" />
        </mxCell>
        <mxCell id="U05u6-LTrtxGhppZVjrv-26" value="&lt;h1 style=&quot;margin-top: 0px;&quot;&gt;&lt;br&gt;&lt;/h1&gt;&lt;p&gt;&lt;font style=&quot;font-size: 8px;&quot;&gt;Lorem ipsum dolor sit amet, consectetur adipisicing elit, sed do eiusmod&amp;nbsp;&lt;/font&gt;&lt;/p&gt;" style="text;html=1;whiteSpace=wrap;overflow=hidden;rounded=0;" parent="1" vertex="1">
          <mxGeometry x="175" y="527.5" width="180" height="80" as="geometry" />
        </mxCell>
        <mxCell id="U05u6-LTrtxGhppZVjrv-27" value="&lt;font size=&quot;1&quot;&gt;Clinicians&lt;/font&gt;" style="text;html=1;align=center;verticalAlign=middle;whiteSpace=wrap;rounded=0;" parent="1" vertex="1">
          <mxGeometry x="450" y="570" width="50" height="20" as="geometry" />
        </mxCell>
        <mxCell id="U05u6-LTrtxGhppZVjrv-28" value="" style="verticalLabelPosition=bottom;verticalAlign=top;html=1;shadow=0;dashed=0;strokeWidth=1;shape=mxgraph.android.tab2;strokeColor=#c0c0c0;direction=north;" parent="1" vertex="1">
          <mxGeometry x="-730" y="170" width="686" height="472" as="geometry" />
        </mxCell>
        <mxCell id="U05u6-LTrtxGhppZVjrv-29" value="" style="html=1;strokeWidth=1;shadow=0;dashed=0;shape=mxgraph.ios7ui.appBar;fillColor=#ffffff;gradientColor=none;sketch=0;hachureGap=4;pointerEvents=0;fontFamily=Architects Daughter;fontSource=https%3A%2F%2Ffonts.googleapis.com%2Fcss%3Ffamily%3DArchitects%2BDaughter;fontSize=20;" parent="1" vertex="1">
          <mxGeometry x="-672" y="230" width="570" height="15" as="geometry" />
        </mxCell>
        <mxCell id="U05u6-LTrtxGhppZVjrv-30" value="CARRIER" style="shape=rect;align=left;fontSize=8;spacingLeft=24;fontSize=4;fontColor=#aaaaaa;strokeColor=none;fillColor=none;spacingTop=0;sketch=0;hachureGap=4;pointerEvents=0;fontFamily=Helvetica;html=1;" parent="U05u6-LTrtxGhppZVjrv-29" vertex="1">
          <mxGeometry y="0.5" width="50" height="13" relative="1" as="geometry">
            <mxPoint y="-6.5" as="offset" />
          </mxGeometry>
        </mxCell>
        <mxCell id="U05u6-LTrtxGhppZVjrv-31" value="11:55PM" style="shape=rect;fontSize=8;fontColor=#aaaaaa;strokeColor=none;fillColor=none;spacingTop=0;sketch=0;hachureGap=4;pointerEvents=0;fontFamily=Helvetica;html=1;" parent="U05u6-LTrtxGhppZVjrv-29" vertex="1">
          <mxGeometry x="0.5" y="0.5" width="50" height="13" relative="1" as="geometry">
            <mxPoint x="-25" y="-6.5" as="offset" />
          </mxGeometry>
        </mxCell>
        <mxCell id="U05u6-LTrtxGhppZVjrv-32" value="98%" style="shape=rect;align=right;fontSize=8;spacingRight=19;fontSize=6;fontColor=#aaaaaa;strokeColor=none;fillColor=none;spacingTop=0;sketch=0;hachureGap=4;pointerEvents=0;fontFamily=Helvetica;html=1;" parent="U05u6-LTrtxGhppZVjrv-29" vertex="1">
          <mxGeometry x="1" y="0.5" width="45" height="13" relative="1" as="geometry">
            <mxPoint x="-45" y="-6.5" as="offset" />
          </mxGeometry>
        </mxCell>
        <mxCell id="U05u6-LTrtxGhppZVjrv-33" value="&lt;font style=&quot;color: rgb(114, 114, 114);&quot;&gt;Username&lt;/font&gt;" style="rounded=1;whiteSpace=wrap;html=1;labelBackgroundColor=default;fillColor=#f5f5f5;fontColor=#333333;strokeColor=#666666;" parent="1" vertex="1">
          <mxGeometry x="-515" y="360" width="250" height="30" as="geometry" />
        </mxCell>
        <mxCell id="U05u6-LTrtxGhppZVjrv-34" value="&lt;font style=&quot;font-size: 21px;&quot;&gt;&lt;b&gt;CHEST RAY&lt;/b&gt;&lt;/font&gt;" style="text;html=1;align=center;verticalAlign=middle;whiteSpace=wrap;rounded=0;fontFamily=Times New Roman;" parent="1" vertex="1">
          <mxGeometry x="-457" y="290" width="147" height="30" as="geometry" />
        </mxCell>
        <mxCell id="U05u6-LTrtxGhppZVjrv-35" value="&lt;b&gt;&lt;font style=&quot;font-size: 16px;&quot;&gt;Login to your account&lt;/font&gt;&lt;/b&gt;" style="text;html=1;align=center;verticalAlign=middle;whiteSpace=wrap;rounded=0;" parent="1" vertex="1">
          <mxGeometry x="-480.5" y="320" width="187" height="30" as="geometry" />
        </mxCell>
        <mxCell id="U05u6-LTrtxGhppZVjrv-36" value="&lt;font color=&quot;#727272&quot;&gt;Password&lt;/font&gt;" style="rounded=1;whiteSpace=wrap;html=1;labelBackgroundColor=default;fillColor=#f5f5f5;fontColor=#333333;strokeColor=#666666;" parent="1" vertex="1">
          <mxGeometry x="-515" y="410" width="250" height="30" as="geometry" />
        </mxCell>
        <mxCell id="U05u6-LTrtxGhppZVjrv-37" value="Sign in" style="rounded=1;html=1;shadow=0;dashed=0;whiteSpace=wrap;fontSize=10;fillColor=#999999;align=center;strokeColor=#666666;fontColor=#ffffff;strokeWidth=2;" parent="1" vertex="1">
          <mxGeometry x="-510" y="460" width="240" height="16.88" as="geometry" />
        </mxCell>
        <mxCell id="U05u6-LTrtxGhppZVjrv-38" value="Don&#39;t have a account?&amp;nbsp; &amp;nbsp;&lt;b&gt;Sign Up&lt;/b&gt;" style="text;html=1;align=center;verticalAlign=middle;whiteSpace=wrap;rounded=0;" parent="1" vertex="1">
          <mxGeometry x="-515" y="550" width="245" height="30" as="geometry" />
        </mxCell>
        <mxCell id="U05u6-LTrtxGhppZVjrv-39" value="Or Login with&amp;nbsp;" style="text;html=1;align=center;verticalAlign=middle;whiteSpace=wrap;rounded=0;fontSize=9;" parent="1" vertex="1">
          <mxGeometry x="-420" y="480" width="60" height="30" as="geometry" />
        </mxCell>
        <mxCell id="U05u6-LTrtxGhppZVjrv-40" value="" style="sketch=0;verticalLabelPosition=bottom;sketch=0;aspect=fixed;html=1;verticalAlign=top;strokeColor=none;fillColor=#000000;align=center;outlineConnect=0;pointerEvents=1;shape=mxgraph.citrix2.authentication_google;" parent="1" vertex="1">
          <mxGeometry x="-420" y="520" width="20" height="20" as="geometry" />
        </mxCell>
        <mxCell id="U05u6-LTrtxGhppZVjrv-41" value="" style="shape=image;html=1;verticalAlign=top;verticalLabelPosition=bottom;labelBackgroundColor=#ffffff;imageAspect=0;aspect=fixed;image=https://cdn3.iconfinder.com/data/icons/social-media-black-white-2/512/BW_Facebook_glyph_svg-128.png" parent="1" vertex="1">
          <mxGeometry x="-385" y="520" width="20" height="20" as="geometry" />
        </mxCell>
        <mxCell id="U05u6-LTrtxGhppZVjrv-42" value="" style="verticalLabelPosition=bottom;verticalAlign=top;html=1;shadow=0;dashed=0;strokeWidth=1;shape=mxgraph.android.tab2;strokeColor=#c0c0c0;direction=north;" parent="1" vertex="1">
          <mxGeometry x="-1480" y="170" width="686" height="472" as="geometry" />
        </mxCell>
        <mxCell id="U05u6-LTrtxGhppZVjrv-43" value="" style="html=1;strokeWidth=1;shadow=0;dashed=0;shape=mxgraph.ios7ui.appBar;fillColor=#ffffff;gradientColor=none;sketch=0;hachureGap=4;pointerEvents=0;fontFamily=Architects Daughter;fontSource=https%3A%2F%2Ffonts.googleapis.com%2Fcss%3Ffamily%3DArchitects%2BDaughter;fontSize=20;" parent="1" vertex="1">
          <mxGeometry x="-1422" y="230" width="570" height="15" as="geometry" />
        </mxCell>
        <mxCell id="U05u6-LTrtxGhppZVjrv-44" value="CARRIER" style="shape=rect;align=left;fontSize=8;spacingLeft=24;fontSize=4;fontColor=#aaaaaa;strokeColor=none;fillColor=none;spacingTop=0;sketch=0;hachureGap=4;pointerEvents=0;fontFamily=Helvetica;html=1;" parent="U05u6-LTrtxGhppZVjrv-43" vertex="1">
          <mxGeometry y="0.5" width="50" height="13" relative="1" as="geometry">
            <mxPoint y="-6.5" as="offset" />
          </mxGeometry>
        </mxCell>
        <mxCell id="U05u6-LTrtxGhppZVjrv-45" value="11:55PM" style="shape=rect;fontSize=8;fontColor=#aaaaaa;strokeColor=none;fillColor=none;spacingTop=0;sketch=0;hachureGap=4;pointerEvents=0;fontFamily=Helvetica;html=1;" parent="U05u6-LTrtxGhppZVjrv-43" vertex="1">
          <mxGeometry x="0.5" y="0.5" width="50" height="13" relative="1" as="geometry">
            <mxPoint x="-25" y="-6.5" as="offset" />
          </mxGeometry>
        </mxCell>
        <mxCell id="U05u6-LTrtxGhppZVjrv-46" value="98%" style="shape=rect;align=right;fontSize=8;spacingRight=19;fontSize=6;fontColor=#aaaaaa;strokeColor=none;fillColor=none;spacingTop=0;sketch=0;hachureGap=4;pointerEvents=0;fontFamily=Helvetica;html=1;" parent="U05u6-LTrtxGhppZVjrv-43" vertex="1">
          <mxGeometry x="1" y="0.5" width="45" height="13" relative="1" as="geometry">
            <mxPoint x="-45" y="-6.5" as="offset" />
          </mxGeometry>
        </mxCell>
        <mxCell id="U05u6-LTrtxGhppZVjrv-47" value="&lt;font style=&quot;font-size: 21px;&quot;&gt;&lt;b&gt;CHEST RAY&lt;/b&gt;&lt;/font&gt;" style="text;html=1;align=center;verticalAlign=middle;whiteSpace=wrap;rounded=0;fontFamily=Times New Roman;" parent="1" vertex="1">
          <mxGeometry x="-1219" y="280" width="147" height="30" as="geometry" />
        </mxCell>
        <mxCell id="U05u6-LTrtxGhppZVjrv-48" value="&lt;span style=&quot;font-size: 16px;&quot;&gt;&lt;b&gt;Create your account&lt;/b&gt;&lt;/span&gt;" style="text;html=1;align=center;verticalAlign=middle;whiteSpace=wrap;rounded=0;" parent="1" vertex="1">
          <mxGeometry x="-1239" y="320" width="187" height="30" as="geometry" />
        </mxCell>
        <mxCell id="U05u6-LTrtxGhppZVjrv-49" value="&lt;font color=&quot;#727272&quot;&gt;Full Name&lt;/font&gt;" style="rounded=1;whiteSpace=wrap;html=1;labelBackgroundColor=default;fillColor=#f5f5f5;fontColor=#333333;strokeColor=#666666;" parent="1" vertex="1">
          <mxGeometry x="-1262" y="360" width="250" height="30" as="geometry" />
        </mxCell>
        <mxCell id="U05u6-LTrtxGhppZVjrv-50" value="&lt;font color=&quot;#727272&quot;&gt;Email ID&lt;/font&gt;" style="rounded=1;whiteSpace=wrap;html=1;labelBackgroundColor=default;fillColor=#f5f5f5;fontColor=#333333;strokeColor=#666666;" parent="1" vertex="1">
          <mxGeometry x="-1262" y="400" width="250" height="30" as="geometry" />
        </mxCell>
        <mxCell id="U05u6-LTrtxGhppZVjrv-51" value="&lt;font color=&quot;#727272&quot;&gt;Password&lt;/font&gt;" style="rounded=1;whiteSpace=wrap;html=1;labelBackgroundColor=default;fillColor=#f5f5f5;fontColor=#333333;strokeColor=#666666;" parent="1" vertex="1">
          <mxGeometry x="-1262" y="440" width="250" height="30" as="geometry" />
        </mxCell>
        <mxCell id="U05u6-LTrtxGhppZVjrv-52" value="Sign Up" style="rounded=1;html=1;shadow=0;dashed=0;whiteSpace=wrap;fontSize=10;fillColor=#999999;align=center;strokeColor=#666666;fontColor=#ffffff;strokeWidth=2;" parent="1" vertex="1">
          <mxGeometry x="-1257" y="490" width="240" height="16.88" as="geometry" />
        </mxCell>
        <mxCell id="U05u6-LTrtxGhppZVjrv-53" value="Or Sign Up with&amp;nbsp;" style="text;html=1;align=center;verticalAlign=middle;whiteSpace=wrap;rounded=0;fontSize=9;" parent="1" vertex="1">
          <mxGeometry x="-1185.5" y="506.8800000000001" width="80" height="30" as="geometry" />
        </mxCell>
        <mxCell id="U05u6-LTrtxGhppZVjrv-54" value="" style="sketch=0;verticalLabelPosition=bottom;sketch=0;aspect=fixed;html=1;verticalAlign=top;strokeColor=none;fillColor=#000000;align=center;outlineConnect=0;pointerEvents=1;shape=mxgraph.citrix2.authentication_google;" parent="1" vertex="1">
          <mxGeometry x="-1182" y="540" width="20" height="20" as="geometry" />
        </mxCell>
        <mxCell id="U05u6-LTrtxGhppZVjrv-55" value="" style="shape=image;html=1;verticalAlign=top;verticalLabelPosition=bottom;labelBackgroundColor=#ffffff;imageAspect=0;aspect=fixed;image=https://cdn3.iconfinder.com/data/icons/social-media-black-white-2/512/BW_Facebook_glyph_svg-128.png" parent="1" vertex="1">
          <mxGeometry x="-1142" y="540" width="20" height="20" as="geometry" />
        </mxCell>
        <mxCell id="U05u6-LTrtxGhppZVjrv-56" value="" style="endArrow=classic;html=1;rounded=0;exitX=-0.02;exitY=0.273;exitDx=0;exitDy=0;exitPerimeter=0;entryX=-0.01;entryY=0.677;entryDx=0;entryDy=0;entryPerimeter=0;" parent="1" source="U05u6-LTrtxGhppZVjrv-28" target="U05u6-LTrtxGhppZVjrv-1" edge="1">
          <mxGeometry width="50" height="50" relative="1" as="geometry">
            <mxPoint x="-440" y="750" as="sourcePoint" />
            <mxPoint x="-543" y="740" as="targetPoint" />
            <Array as="points">
              <mxPoint x="-543" y="750" />
              <mxPoint x="560" y="750" />
            </Array>
          </mxGeometry>
        </mxCell>
        <mxCell id="U05u6-LTrtxGhppZVjrv-57" value="" style="endArrow=classic;html=1;rounded=0;exitX=-0.007;exitY=0.399;exitDx=0;exitDy=0;exitPerimeter=0;entryX=-0.01;entryY=0.556;entryDx=0;entryDy=0;entryPerimeter=0;" parent="1" source="U05u6-LTrtxGhppZVjrv-42" target="U05u6-LTrtxGhppZVjrv-1" edge="1">
          <mxGeometry width="50" height="50" relative="1" as="geometry">
            <mxPoint x="-310" y="750" as="sourcePoint" />
            <mxPoint x="-260" y="700" as="targetPoint" />
            <Array as="points">
              <mxPoint x="-1206" y="720" />
              <mxPoint x="474" y="720" />
            </Array>
          </mxGeometry>
        </mxCell>
        <mxCell id="U05u6-LTrtxGhppZVjrv-58" value="&lt;h1 style=&quot;margin-top: 0px;&quot;&gt;Lorum ipsum&lt;/h1&gt;&lt;p&gt;Lorem ipsum dolor sit amet, consectetur adipisicing elit, sed do eiusmod tempor incididunt ut labore et dolore magna aliqua.&lt;/p&gt;" style="text;html=1;whiteSpace=wrap;overflow=hidden;rounded=0;" parent="1" vertex="1">
          <mxGeometry x="165" y="408.44" width="210" height="110" as="geometry" />
        </mxCell>
        <mxCell id="U05u6-LTrtxGhppZVjrv-59" value="" style="shape=image;html=1;verticalAlign=top;verticalLabelPosition=bottom;labelBackgroundColor=#ffffff;imageAspect=0;aspect=fixed;image=https://cdn4.iconfinder.com/data/icons/app-custom-ui-1/48/Picture-128.png" parent="1" vertex="1">
          <mxGeometry x="380" y="408.44" width="120" height="120" as="geometry" />
        </mxCell>
        <mxCell id="U05u6-LTrtxGhppZVjrv-60" value="" style="html=1;shadow=0;dashed=0;shape=mxgraph.ios.fancyRRect;rSize=8;strokeColor=#dddddd;fillColor=#FFFFFF;gradientColor=none;opacity=80;fontColor=#ffffff;fontSize=8;whiteSpace=wrap;align=center;sketch=0;hachureGap=4;pointerEvents=0;fontFamily=Helvetica;" parent="1" vertex="1">
          <mxGeometry x="570" y="375" width="140" height="50" as="geometry" />
        </mxCell>
        <mxCell id="U05u6-LTrtxGhppZVjrv-61" value="" style="html=1;shadow=0;dashed=0;shape=mxgraph.ios.anchor;fontSize=12;fontColor=#ffffff;whiteSpace=wrap;resizeWidth=1;sketch=0;hachureGap=4;pointerEvents=0;fontFamily=Helvetica;" parent="U05u6-LTrtxGhppZVjrv-60" vertex="1">
          <mxGeometry width="140" height="25" relative="1" as="geometry" />
        </mxCell>
        <UserObject label="Check&amp;nbsp; Patients" id="U05u6-LTrtxGhppZVjrv-62">
          <mxCell style="html=1;shadow=0;dashed=0;shape=mxgraph.ios.rrect;rSize=3;fontSize=8;fontColor=#ffffff;strokeColor=#ffffff;fillColor=#999999;gradientColor=none;opacity=80;whiteSpace=wrap;sketch=0;hachureGap=4;pointerEvents=0;fontFamily=Helvetica;" parent="U05u6-LTrtxGhppZVjrv-60" vertex="1">
            <mxGeometry x="0.5" y="1" width="80" height="11" relative="1" as="geometry">
              <mxPoint x="-40" y="-20" as="offset" />
            </mxGeometry>
          </mxCell>
        </UserObject>
        <mxCell id="U05u6-LTrtxGhppZVjrv-63" value="&lt;span style=&quot;font-size: 8px;&quot;&gt;check the patients&lt;/span&gt;" style="text;html=1;align=center;verticalAlign=middle;whiteSpace=wrap;rounded=0;fontColor=#1A1A1A;" parent="U05u6-LTrtxGhppZVjrv-60" vertex="1">
          <mxGeometry x="5" width="130" height="30" as="geometry" />
        </mxCell>
        <mxCell id="U05u6-LTrtxGhppZVjrv-64" value="" style="html=1;shadow=0;dashed=0;shape=mxgraph.ios.fancyRRect;rSize=8;strokeColor=#dddddd;fillColor=#FFFFFF;gradientColor=none;opacity=80;fontColor=#ffffff;fontSize=8;whiteSpace=wrap;align=center;sketch=0;hachureGap=4;pointerEvents=0;fontFamily=Helvetica;" parent="1" vertex="1">
          <mxGeometry x="570" y="438.44" width="140" height="50" as="geometry" />
        </mxCell>
        <mxCell id="U05u6-LTrtxGhppZVjrv-65" value="" style="html=1;shadow=0;dashed=0;shape=mxgraph.ios.anchor;fontSize=12;fontColor=#ffffff;whiteSpace=wrap;resizeWidth=1;sketch=0;hachureGap=4;pointerEvents=0;fontFamily=Helvetica;" parent="U05u6-LTrtxGhppZVjrv-64" vertex="1">
          <mxGeometry width="140" height="25" relative="1" as="geometry" />
        </mxCell>
        <UserObject label="Create Record" id="U05u6-LTrtxGhppZVjrv-66">
          <mxCell style="html=1;shadow=0;dashed=0;shape=mxgraph.ios.rrect;rSize=3;fontSize=8;fontColor=#ffffff;strokeColor=#ffffff;fillColor=#999999;gradientColor=none;opacity=80;whiteSpace=wrap;sketch=0;hachureGap=4;pointerEvents=0;fontFamily=Helvetica;" parent="U05u6-LTrtxGhppZVjrv-64" vertex="1">
            <mxGeometry x="0.5" y="1" width="80" height="11" relative="1" as="geometry">
              <mxPoint x="-40" y="-20" as="offset" />
            </mxGeometry>
          </mxCell>
        </UserObject>
        <mxCell id="U05u6-LTrtxGhppZVjrv-67" value="&lt;font&gt;&lt;span style=&quot;font-size: 8px;&quot;&gt;Create new record&lt;/span&gt;&lt;/font&gt;" style="text;html=1;align=center;verticalAlign=middle;whiteSpace=wrap;rounded=0;fontColor=#1A1A1A;" parent="U05u6-LTrtxGhppZVjrv-64" vertex="1">
          <mxGeometry x="5" width="130" height="30" as="geometry" />
        </mxCell>
        <mxCell id="U05u6-LTrtxGhppZVjrv-68" value="" style="verticalLabelPosition=bottom;verticalAlign=top;html=1;shadow=0;dashed=0;strokeWidth=1;shape=mxgraph.android.tab2;strokeColor=#c0c0c0;direction=north;" parent="1" vertex="1">
          <mxGeometry x="-1115" y="980" width="690" height="540" as="geometry" />
        </mxCell>
        <mxCell id="U05u6-LTrtxGhppZVjrv-69" value="" style="html=1;strokeWidth=1;shadow=0;dashed=0;shape=mxgraph.ios7ui.appBar;fillColor=#ffffff;gradientColor=none;sketch=0;hachureGap=4;pointerEvents=0;fontFamily=Architects Daughter;fontSource=https%3A%2F%2Ffonts.googleapis.com%2Fcss%3Ffamily%3DArchitects%2BDaughter;fontSize=20;" parent="1" vertex="1">
          <mxGeometry x="-1055" y="1050" width="570" height="15" as="geometry" />
        </mxCell>
        <mxCell id="U05u6-LTrtxGhppZVjrv-70" value="CARRIER" style="shape=rect;align=left;fontSize=8;spacingLeft=24;fontSize=4;fontColor=#aaaaaa;strokeColor=none;fillColor=none;spacingTop=0;sketch=0;hachureGap=4;pointerEvents=0;fontFamily=Helvetica;html=1;" parent="U05u6-LTrtxGhppZVjrv-69" vertex="1">
          <mxGeometry y="0.5" width="50" height="13" relative="1" as="geometry">
            <mxPoint y="-6.5" as="offset" />
          </mxGeometry>
        </mxCell>
        <mxCell id="U05u6-LTrtxGhppZVjrv-71" value="11:55PM" style="shape=rect;fontSize=8;fontColor=#aaaaaa;strokeColor=none;fillColor=none;spacingTop=0;sketch=0;hachureGap=4;pointerEvents=0;fontFamily=Helvetica;html=1;" parent="U05u6-LTrtxGhppZVjrv-69" vertex="1">
          <mxGeometry x="0.5" y="0.5" width="50" height="13" relative="1" as="geometry">
            <mxPoint x="-25" y="-6.5" as="offset" />
          </mxGeometry>
        </mxCell>
        <mxCell id="U05u6-LTrtxGhppZVjrv-72" value="98%" style="shape=rect;align=right;fontSize=8;spacingRight=19;fontSize=6;fontColor=#aaaaaa;strokeColor=none;fillColor=none;spacingTop=0;sketch=0;hachureGap=4;pointerEvents=0;fontFamily=Helvetica;html=1;" parent="U05u6-LTrtxGhppZVjrv-69" vertex="1">
          <mxGeometry x="1" y="0.5" width="45" height="13" relative="1" as="geometry">
            <mxPoint x="-45" y="-6.5" as="offset" />
          </mxGeometry>
        </mxCell>
        <mxCell id="U05u6-LTrtxGhppZVjrv-73" value="" style="verticalLabelPosition=bottom;verticalAlign=top;html=1;shadow=0;dashed=0;strokeWidth=1;shape=mxgraph.android.contact_badge_normal;sketch=0;" parent="1" vertex="1">
          <mxGeometry x="-515" y="1070" width="20" height="20" as="geometry" />
        </mxCell>
        <mxCell id="U05u6-LTrtxGhppZVjrv-74" value="" style="shape=image;html=1;verticalAlign=top;verticalLabelPosition=bottom;labelBackgroundColor=#ffffff;imageAspect=0;aspect=fixed;image=https://cdn4.iconfinder.com/data/icons/basic-user-interface-2/512/User_Interface-33-128.png" parent="1" vertex="1">
          <mxGeometry x="-1055" y="1060" width="40" height="40" as="geometry" />
        </mxCell>
        <mxCell id="U05u6-LTrtxGhppZVjrv-75" value="CHEST RAY" style="text;html=1;align=center;verticalAlign=middle;whiteSpace=wrap;rounded=0;" parent="1" vertex="1">
          <mxGeometry x="-1015" y="1065" width="80" height="30" as="geometry" />
        </mxCell>
        <UserObject label="Home&lt;b&gt;&amp;nbsp;&lt;/b&gt;&amp;nbsp; &amp;nbsp; &amp;nbsp; &amp;nbsp; &amp;nbsp; &amp;nbsp; &amp;nbsp;&amp;nbsp;&lt;u&gt;&lt;b&gt; Patient Records&amp;nbsp;&lt;/b&gt;&lt;/u&gt;&amp;nbsp; &amp;nbsp; &amp;nbsp; &amp;nbsp; &amp;nbsp; &amp;nbsp; &amp;nbsp; Clinician Reviews" id="U05u6-LTrtxGhppZVjrv-76">
          <mxCell style="rounded=1;html=1;shadow=0;dashed=0;whiteSpace=wrap;fontSize=10;fillColor=#CCCCCC;align=center;strokeColor=#666666;fontColor=#333333;strokeWidth=2;" parent="1" vertex="1">
            <mxGeometry x="-1045" y="1095" width="550" height="26.88" as="geometry" />
          </mxCell>
        </UserObject>
        <mxCell id="U05u6-LTrtxGhppZVjrv-77" value="" style="rounded=1;whiteSpace=wrap;html=1;" parent="1" vertex="1">
          <mxGeometry x="-1061" y="1400" width="582" height="60" as="geometry" />
        </mxCell>
        <mxCell id="U05u6-LTrtxGhppZVjrv-78" value="&lt;font style=&quot;font-size: 17px;&quot;&gt;&lt;b&gt;&lt;i&gt;CHEST RAY&lt;/i&gt;&lt;/b&gt;&lt;/font&gt;" style="text;html=1;align=center;verticalAlign=middle;whiteSpace=wrap;rounded=0;" parent="1" vertex="1">
          <mxGeometry x="-1032.5" y="1407.5" width="115" height="30" as="geometry" />
        </mxCell>
        <mxCell id="U05u6-LTrtxGhppZVjrv-79" value="" style="shape=image;html=1;verticalAlign=top;verticalLabelPosition=bottom;labelBackgroundColor=#ffffff;imageAspect=0;aspect=fixed;image=https://cdn4.iconfinder.com/data/icons/app-custom-ui-1/48/Picture-128.png" parent="1" vertex="1">
          <mxGeometry x="-1045" y="1415" width="15" height="15" as="geometry" />
        </mxCell>
        <mxCell id="U05u6-LTrtxGhppZVjrv-80" value="&lt;font style=&quot;font-size: 9px;&quot;&gt;CONTACT&lt;/font&gt;" style="text;html=1;align=center;verticalAlign=middle;whiteSpace=wrap;rounded=0;" parent="1" vertex="1">
          <mxGeometry x="-575" y="1410" width="50" height="20" as="geometry" />
        </mxCell>
        <mxCell id="U05u6-LTrtxGhppZVjrv-81" value="" style="verticalLabelPosition=top;html=1;shadow=0;dashed=0;verticalAlign=bottom;strokeWidth=1;shape=mxgraph.ios.iPin;fillColor2=#00dd00;fillColor3=#004400;strokeColor=#006600;" parent="1" vertex="1">
          <mxGeometry x="-685" y="1420" height="10" as="geometry" />
        </mxCell>
        <mxCell id="U05u6-LTrtxGhppZVjrv-82" value="" style="shape=image;html=1;verticalAlign=top;verticalLabelPosition=bottom;labelBackgroundColor=#ffffff;imageAspect=0;aspect=fixed;image=https://cdn1.iconfinder.com/data/icons/iconnice-vector-icon/31/Vector-icons_23-128.png" parent="1" vertex="1">
          <mxGeometry x="-590" y="1415" width="10" height="10" as="geometry" />
        </mxCell>
        <mxCell id="U05u6-LTrtxGhppZVjrv-83" value="" style="shape=image;html=1;verticalAlign=top;verticalLabelPosition=bottom;labelBackgroundColor=#ffffff;imageAspect=0;aspect=fixed;image=https://cdn1.iconfinder.com/data/icons/iconnice-vector-icon/31/Vector-icons_23-128.png" parent="1" vertex="1">
          <mxGeometry x="-590" y="1435" width="10" height="10" as="geometry" />
        </mxCell>
        <mxCell id="U05u6-LTrtxGhppZVjrv-84" value="&lt;font size=&quot;1&quot;&gt;EMAIL&lt;/font&gt;" style="text;html=1;align=center;verticalAlign=middle;whiteSpace=wrap;rounded=0;" parent="1" vertex="1">
          <mxGeometry x="-575" y="1427.5" width="40" height="20" as="geometry" />
        </mxCell>
        <mxCell id="U05u6-LTrtxGhppZVjrv-85" value="&lt;font size=&quot;1&quot;&gt;Contact Us&lt;/font&gt;" style="text;html=1;align=center;verticalAlign=middle;whiteSpace=wrap;rounded=0;" parent="1" vertex="1">
          <mxGeometry x="-825" y="1420" width="60" height="20" as="geometry" />
        </mxCell>
        <mxCell id="U05u6-LTrtxGhppZVjrv-86" value="&lt;font size=&quot;1&quot;&gt;About Us&lt;/font&gt;" style="text;html=1;align=center;verticalAlign=middle;whiteSpace=wrap;rounded=0;" parent="1" vertex="1">
          <mxGeometry x="-695" y="1420" width="60" height="20" as="geometry" />
        </mxCell>
        <mxCell id="U05u6-LTrtxGhppZVjrv-87" value="&lt;h1 style=&quot;margin-top: 0px;&quot;&gt;&lt;br&gt;&lt;/h1&gt;&lt;p&gt;&lt;font style=&quot;font-size: 8px;&quot;&gt;Lorem ipsum dolor sit amet, consectetur adipisicing elit, sed do eiusmod&amp;nbsp;&lt;/font&gt;&lt;/p&gt;" style="text;html=1;whiteSpace=wrap;overflow=hidden;rounded=0;" parent="1" vertex="1">
          <mxGeometry x="-1030" y="1377.5" width="180" height="80" as="geometry" />
        </mxCell>
        <mxCell id="U05u6-LTrtxGhppZVjrv-88" value="&lt;font size=&quot;1&quot;&gt;Clinicians&lt;/font&gt;" style="text;html=1;align=center;verticalAlign=middle;whiteSpace=wrap;rounded=0;" parent="1" vertex="1">
          <mxGeometry x="-755" y="1420" width="50" height="20" as="geometry" />
        </mxCell>
        <mxCell id="U05u6-LTrtxGhppZVjrv-89" value="" style="strokeColor=none;fillColor=#666666;shape=ellipse;" parent="1" vertex="1">
          <mxGeometry x="-715" y="1138" width="14" height="14" as="geometry" />
        </mxCell>
        <mxCell id="U05u6-LTrtxGhppZVjrv-90" value="" style="strokeColor=#F7F7F7;fillColor=none;shape=mxgraph.ios7.icons.microphone;strokeWidth=1;" parent="U05u6-LTrtxGhppZVjrv-89" vertex="1">
          <mxGeometry x="0.5" y="0.5" width="4" height="10" relative="1" as="geometry">
            <mxPoint x="-2" y="-5" as="offset" />
          </mxGeometry>
        </mxCell>
        <mxCell id="U05u6-LTrtxGhppZVjrv-91" value="" style="shape=rect;fillColor=#F6F6F6;strokeColor=none;" parent="1" vertex="1">
          <mxGeometry x="-1045" y="1130" width="330" height="30" as="geometry" />
        </mxCell>
        <mxCell id="U05u6-LTrtxGhppZVjrv-92" value="" style="html=1;strokeWidth=1;shadow=0;dashed=0;shape=mxgraph.ios7ui.marginRect;rx=3;ry=3;rectMargin=5;fillColor=#E4E4E4;strokeColor=none;" parent="U05u6-LTrtxGhppZVjrv-91" vertex="1">
          <mxGeometry width="330" height="30" as="geometry" />
        </mxCell>
        <mxCell id="U05u6-LTrtxGhppZVjrv-93" value="Search" style="shape=mxgraph.ios7.icons.looking_glass;strokeColor=#878789;fillColor=none;fontColor=#878789;labelPosition=right;verticalLabelPosition=middle;align=left;verticalAlign=middle;fontSize=6;fontStyle=0;spacingTop=2;sketch=0;html=1;" parent="U05u6-LTrtxGhppZVjrv-91" vertex="1">
          <mxGeometry x="0.5" y="0.5" width="6" height="6" relative="1" as="geometry">
            <mxPoint x="-17" y="-3" as="offset" />
          </mxGeometry>
        </mxCell>
        <UserObject label="Create new Record" id="U05u6-LTrtxGhppZVjrv-94">
          <mxCell style="rounded=1;html=1;shadow=0;dashed=0;whiteSpace=wrap;fontSize=10;fillColor=#999999;align=center;strokeColor=#666666;fontColor=#ffffff;strokeWidth=2;" parent="1" vertex="1">
            <mxGeometry x="-640.5" y="1138" width="135.5" height="16.88" as="geometry" />
          </mxCell>
        </UserObject>
        <mxCell id="U05u6-LTrtxGhppZVjrv-95" value="" style="rounded=1;whiteSpace=wrap;html=1;" parent="1" vertex="1">
          <mxGeometry x="-1045" y="1170" width="320" height="60" as="geometry" />
        </mxCell>
        <mxCell id="U05u6-LTrtxGhppZVjrv-96" value="" style="shape=image;html=1;verticalAlign=top;verticalLabelPosition=bottom;labelBackgroundColor=#ffffff;imageAspect=0;aspect=fixed;image=https://cdn4.iconfinder.com/data/icons/basic-user-interface-2/512/User_Interface-33-128.png" parent="1" vertex="1">
          <mxGeometry x="-1045" y="1160" width="52.5" height="52.5" as="geometry" />
        </mxCell>
        <mxCell id="U05u6-LTrtxGhppZVjrv-97" value="&lt;h1 style=&quot;margin-top: 0px;&quot;&gt;&lt;font style=&quot;font-size: 18px;&quot;&gt;Patient ID&lt;/font&gt;&lt;/h1&gt;&lt;p&gt;&lt;br&gt;&lt;/p&gt;" style="text;html=1;whiteSpace=wrap;overflow=hidden;rounded=0;" parent="1" vertex="1">
          <mxGeometry x="-1005" y="1160" width="270" height="30" as="geometry" />
        </mxCell>
        <mxCell id="U05u6-LTrtxGhppZVjrv-98" value="&lt;span style=&quot;font-size: 8px;&quot;&gt;Lorem ipsum dolor sit amet, consectetur adipisicing elit, sed do eiusmod tempor incididunt ut labore et dolore magna aliqua.&lt;/span&gt;" style="text;html=1;align=left;verticalAlign=middle;whiteSpace=wrap;rounded=0;" parent="1" vertex="1">
          <mxGeometry x="-1005" y="1190" width="280" height="30" as="geometry" />
        </mxCell>
        <mxCell id="U05u6-LTrtxGhppZVjrv-99" value="" style="rounded=1;whiteSpace=wrap;html=1;" parent="1" vertex="1">
          <mxGeometry x="-1045" y="1240" width="320" height="60" as="geometry" />
        </mxCell>
        <mxCell id="U05u6-LTrtxGhppZVjrv-100" value="" style="rounded=1;whiteSpace=wrap;html=1;" parent="1" vertex="1">
          <mxGeometry x="-1045" y="1310" width="320" height="60" as="geometry" />
        </mxCell>
        <mxCell id="U05u6-LTrtxGhppZVjrv-101" value="" style="shape=image;html=1;verticalAlign=top;verticalLabelPosition=bottom;labelBackgroundColor=#ffffff;imageAspect=0;aspect=fixed;image=https://cdn4.iconfinder.com/data/icons/basic-user-interface-2/512/User_Interface-33-128.png" parent="1" vertex="1">
          <mxGeometry x="-1045" y="1230" width="52.5" height="52.5" as="geometry" />
        </mxCell>
        <mxCell id="U05u6-LTrtxGhppZVjrv-102" value="" style="shape=image;html=1;verticalAlign=top;verticalLabelPosition=bottom;labelBackgroundColor=#ffffff;imageAspect=0;aspect=fixed;image=https://cdn4.iconfinder.com/data/icons/basic-user-interface-2/512/User_Interface-33-128.png" parent="1" vertex="1">
          <mxGeometry x="-1045" y="1300" width="52.5" height="52.5" as="geometry" />
        </mxCell>
        <mxCell id="U05u6-LTrtxGhppZVjrv-103" value="&lt;h1 style=&quot;margin-top: 0px;&quot;&gt;&lt;font style=&quot;font-size: 18px;&quot;&gt;Patient ID&lt;/font&gt;&lt;/h1&gt;&lt;p&gt;&lt;br&gt;&lt;/p&gt;" style="text;html=1;whiteSpace=wrap;overflow=hidden;rounded=0;" parent="1" vertex="1">
          <mxGeometry x="-1005" y="1230" width="270" height="30" as="geometry" />
        </mxCell>
        <mxCell id="U05u6-LTrtxGhppZVjrv-104" value="&lt;h1 style=&quot;margin-top: 0px;&quot;&gt;&lt;font style=&quot;font-size: 18px;&quot;&gt;Patient ID&lt;/font&gt;&lt;/h1&gt;&lt;p&gt;&lt;br&gt;&lt;/p&gt;" style="text;html=1;whiteSpace=wrap;overflow=hidden;rounded=0;" parent="1" vertex="1">
          <mxGeometry x="-1005" y="1300" width="270" height="30" as="geometry" />
        </mxCell>
        <mxCell id="U05u6-LTrtxGhppZVjrv-105" value="&lt;span style=&quot;font-size: 8px;&quot;&gt;Lorem ipsum dolor sit amet, consectetur adipisicing elit, sed do eiusmod tempor incididunt ut labore et dolore magna aliqua.&lt;/span&gt;" style="text;html=1;align=left;verticalAlign=middle;whiteSpace=wrap;rounded=0;" parent="1" vertex="1">
          <mxGeometry x="-1005" y="1260" width="280" height="30" as="geometry" />
        </mxCell>
        <mxCell id="U05u6-LTrtxGhppZVjrv-106" value="&lt;span style=&quot;font-size: 8px;&quot;&gt;Lorem ipsum dolor sit amet, consectetur adipisicing elit, sed do eiusmod tempor incididunt ut labore et dolore magna aliqua.&lt;/span&gt;" style="text;html=1;align=left;verticalAlign=middle;whiteSpace=wrap;rounded=0;" parent="1" vertex="1">
          <mxGeometry x="-1005" y="1330" width="280" height="30" as="geometry" />
        </mxCell>
        <mxCell id="U05u6-LTrtxGhppZVjrv-107" value="Summary&lt;div&gt;&amp;nbsp;&lt;/div&gt;&lt;div&gt;&lt;br&gt;&lt;/div&gt;&lt;div&gt;&lt;br&gt;&lt;/div&gt;&lt;div&gt;&lt;br&gt;&lt;/div&gt;&lt;div&gt;&lt;br&gt;&lt;div&gt;&lt;br&gt;&lt;/div&gt;&lt;/div&gt;" style="rounded=0;whiteSpace=wrap;html=1;" parent="1" vertex="1">
          <mxGeometry x="-660" y="1180" width="160" height="120" as="geometry" />
        </mxCell>
        <UserObject label="Save" id="U05u6-LTrtxGhppZVjrv-108">
          <mxCell style="rounded=1;html=1;shadow=0;dashed=0;whiteSpace=wrap;fontSize=10;fillColor=#999999;align=center;strokeColor=#666666;fontColor=#ffffff;strokeWidth=2;" parent="1" vertex="1">
            <mxGeometry x="-555" y="1273.12" width="50" height="16.88" as="geometry" />
          </mxCell>
        </UserObject>
        <mxCell id="U05u6-LTrtxGhppZVjrv-109" value="" style="shape=rect;fillColor=#F6F6F6;strokeColor=none;" parent="1" vertex="1">
          <mxGeometry x="-580" y="1230" width="65" height="40" as="geometry" />
        </mxCell>
        <mxCell id="U05u6-LTrtxGhppZVjrv-110" value="" style="html=1;strokeWidth=1;shadow=0;dashed=0;shape=mxgraph.ios7ui.marginRect;rx=3;ry=3;rectMargin=5;fillColor=#E4E4E4;strokeColor=none;" parent="U05u6-LTrtxGhppZVjrv-109" vertex="1">
          <mxGeometry width="65" height="20" as="geometry" />
        </mxCell>
        <mxCell id="U05u6-LTrtxGhppZVjrv-111" value="" style="html=1;strokeWidth=1;shadow=0;dashed=0;shape=mxgraph.ios7ui.marginRect;rx=3;ry=3;rectMargin=5;fillColor=#E4E4E4;strokeColor=none;" parent="U05u6-LTrtxGhppZVjrv-109" vertex="1">
          <mxGeometry y="20" width="65" height="20" as="geometry" />
        </mxCell>
        <mxCell id="U05u6-LTrtxGhppZVjrv-112" value="" style="html=1;strokeWidth=1;shadow=0;dashed=0;shape=mxgraph.ios7ui.marginRect;rx=3;ry=3;rectMargin=5;fillColor=#E4E4E4;strokeColor=none;" parent="1" vertex="1">
          <mxGeometry x="-605" y="1210" width="90" height="20" as="geometry" />
        </mxCell>
        <mxCell id="U05u6-LTrtxGhppZVjrv-113" value="&lt;font style=&quot;font-size: 10px;&quot;&gt;CASES&lt;/font&gt;" style="text;html=1;align=center;verticalAlign=middle;whiteSpace=wrap;rounded=0;" parent="1" vertex="1">
          <mxGeometry x="-660" y="1205" width="60" height="30" as="geometry" />
        </mxCell>
        <mxCell id="U05u6-LTrtxGhppZVjrv-114" value="&lt;span style=&quot;font-size: 10px;&quot;&gt;Pneumonia&lt;/span&gt;" style="text;html=1;align=center;verticalAlign=middle;whiteSpace=wrap;rounded=0;" parent="1" vertex="1">
          <mxGeometry x="-650" y="1225" width="60" height="30" as="geometry" />
        </mxCell>
        <mxCell id="U05u6-LTrtxGhppZVjrv-115" value="&lt;span style=&quot;font-size: 10px;&quot;&gt;Emergency&lt;/span&gt;" style="text;html=1;align=center;verticalAlign=middle;whiteSpace=wrap;rounded=0;" parent="1" vertex="1">
          <mxGeometry x="-650" y="1243.12" width="60" height="30" as="geometry" />
        </mxCell>
        <mxCell id="U05u6-LTrtxGhppZVjrv-116" value="" style="endArrow=classic;html=1;rounded=0;exitX=-0.014;exitY=0.402;exitDx=0;exitDy=0;exitPerimeter=0;entryX=1.006;entryY=0.423;entryDx=0;entryDy=0;entryPerimeter=0;" parent="1" source="U05u6-LTrtxGhppZVjrv-1" target="U05u6-LTrtxGhppZVjrv-68" edge="1">
          <mxGeometry width="50" height="50" relative="1" as="geometry">
            <mxPoint x="-80" y="1450" as="sourcePoint" />
            <mxPoint x="240" y="1220" as="targetPoint" />
            <Array as="points">
              <mxPoint x="-823" y="678" />
            </Array>
          </mxGeometry>
        </mxCell>
        <mxCell id="U05u6-LTrtxGhppZVjrv-117" value="" style="verticalLabelPosition=bottom;verticalAlign=top;html=1;shadow=0;dashed=0;strokeWidth=1;shape=mxgraph.android.tab2;strokeColor=#c0c0c0;direction=north;" parent="1" vertex="1">
          <mxGeometry x="-266" y="920" width="686" height="580" as="geometry" />
        </mxCell>
        <mxCell id="U05u6-LTrtxGhppZVjrv-118" value="" style="html=1;strokeWidth=1;shadow=0;dashed=0;shape=mxgraph.ios7ui.appBar;fillColor=#ffffff;gradientColor=none;sketch=0;hachureGap=4;pointerEvents=0;fontFamily=Architects Daughter;fontSource=https%3A%2F%2Ffonts.googleapis.com%2Fcss%3Ffamily%3DArchitects%2BDaughter;fontSize=20;" parent="1" vertex="1">
          <mxGeometry x="-207" y="995" width="570" height="37.5" as="geometry" />
        </mxCell>
        <mxCell id="U05u6-LTrtxGhppZVjrv-119" value="CARRIER" style="shape=rect;align=left;fontSize=8;spacingLeft=24;fontSize=4;fontColor=#aaaaaa;strokeColor=none;fillColor=none;spacingTop=0;sketch=0;hachureGap=4;pointerEvents=0;fontFamily=Helvetica;html=1;" parent="U05u6-LTrtxGhppZVjrv-118" vertex="1">
          <mxGeometry y="0.5" width="50" height="13" relative="1" as="geometry">
            <mxPoint y="-6.5" as="offset" />
          </mxGeometry>
        </mxCell>
        <mxCell id="U05u6-LTrtxGhppZVjrv-120" value="11:55PM" style="shape=rect;fontSize=8;fontColor=#aaaaaa;strokeColor=none;fillColor=none;spacingTop=0;sketch=0;hachureGap=4;pointerEvents=0;fontFamily=Helvetica;html=1;" parent="U05u6-LTrtxGhppZVjrv-118" vertex="1">
          <mxGeometry x="0.5" y="0.5" width="50" height="13" relative="1" as="geometry">
            <mxPoint x="-25" y="-6.5" as="offset" />
          </mxGeometry>
        </mxCell>
        <mxCell id="U05u6-LTrtxGhppZVjrv-121" value="98%" style="shape=rect;align=right;fontSize=8;spacingRight=19;fontSize=6;fontColor=#aaaaaa;strokeColor=none;fillColor=none;spacingTop=0;sketch=0;hachureGap=4;pointerEvents=0;fontFamily=Helvetica;html=1;" parent="U05u6-LTrtxGhppZVjrv-118" vertex="1">
          <mxGeometry x="1" y="0.5" width="45" height="13" relative="1" as="geometry">
            <mxPoint x="-45" y="-6.5" as="offset" />
          </mxGeometry>
        </mxCell>
        <mxCell id="rGRRH7rSquDJhVR4HHmK-38" value="Create button to create the record&amp;nbsp;&lt;div&gt;after&amp;nbsp;&lt;span style=&quot;background-color: transparent; color: light-dark(rgb(0, 0, 0), rgb(255, 255, 255));&quot;&gt;filling out information.&lt;/span&gt;&lt;/div&gt;" style="whiteSpace=wrap;html=1;shape=mxgraph.basic.oval_callout;flipH=1;fillColor=#f5f5f5;gradientColor=#b3b3b3;strokeColor=#666666;" vertex="1" parent="U05u6-LTrtxGhppZVjrv-118">
          <mxGeometry x="170" y="-10" width="247" height="47.5" as="geometry" />
        </mxCell>
        <mxCell id="U05u6-LTrtxGhppZVjrv-122" value="&lt;span style=&quot;font-size: 16px;&quot;&gt;&lt;b&gt;Create New Record&lt;/b&gt;&lt;/span&gt;" style="text;html=1;align=center;verticalAlign=middle;whiteSpace=wrap;rounded=0;" parent="1" vertex="1">
          <mxGeometry x="-203" y="1010" width="187" height="30" as="geometry" />
        </mxCell>
        <mxCell id="U05u6-LTrtxGhppZVjrv-123" value="&lt;font color=&quot;#727272&quot;&gt;Full Name&lt;/font&gt;" style="rounded=1;whiteSpace=wrap;html=1;labelBackgroundColor=default;fillColor=#f5f5f5;fontColor=#333333;strokeColor=#666666;" parent="1" vertex="1">
          <mxGeometry x="-180.5" y="1070" width="250" height="30" as="geometry" />
        </mxCell>
        <mxCell id="U05u6-LTrtxGhppZVjrv-124" value="&lt;font color=&quot;#727272&quot;&gt;Age&lt;/font&gt;" style="rounded=1;whiteSpace=wrap;html=1;labelBackgroundColor=default;fillColor=#f5f5f5;fontColor=#333333;strokeColor=#666666;" parent="1" vertex="1">
          <mxGeometry x="97" y="1070" width="250" height="30" as="geometry" />
        </mxCell>
        <mxCell id="U05u6-LTrtxGhppZVjrv-125" value="Create" style="rounded=1;html=1;shadow=0;dashed=0;whiteSpace=wrap;fontSize=10;fillColor=#999999;align=center;strokeColor=#666666;fontColor=#ffffff;strokeWidth=2;" parent="1" vertex="1">
          <mxGeometry x="217" y="1023.1199999999999" width="130" height="16.88" as="geometry" />
        </mxCell>
        <mxCell id="U05u6-LTrtxGhppZVjrv-126" value="" style="rounded=1;whiteSpace=wrap;html=1;" parent="1" vertex="1">
          <mxGeometry x="-213" y="1370" width="582" height="60" as="geometry" />
        </mxCell>
        <mxCell id="U05u6-LTrtxGhppZVjrv-127" value="&lt;font style=&quot;font-size: 17px;&quot;&gt;&lt;b&gt;&lt;i&gt;CHEST RAY&lt;/i&gt;&lt;/b&gt;&lt;/font&gt;" style="text;html=1;align=center;verticalAlign=middle;whiteSpace=wrap;rounded=0;" parent="1" vertex="1">
          <mxGeometry x="-174.5" y="1377.5" width="115" height="30" as="geometry" />
        </mxCell>
        <mxCell id="U05u6-LTrtxGhppZVjrv-128" value="" style="shape=image;html=1;verticalAlign=top;verticalLabelPosition=bottom;labelBackgroundColor=#ffffff;imageAspect=0;aspect=fixed;image=https://cdn4.iconfinder.com/data/icons/app-custom-ui-1/48/Picture-128.png" parent="1" vertex="1">
          <mxGeometry x="-187" y="1385" width="15" height="15" as="geometry" />
        </mxCell>
        <mxCell id="U05u6-LTrtxGhppZVjrv-129" value="&lt;font style=&quot;font-size: 9px;&quot;&gt;CONTACT&lt;/font&gt;" style="text;html=1;align=center;verticalAlign=middle;whiteSpace=wrap;rounded=0;" parent="1" vertex="1">
          <mxGeometry x="283" y="1380" width="50" height="20" as="geometry" />
        </mxCell>
        <mxCell id="U05u6-LTrtxGhppZVjrv-130" value="" style="verticalLabelPosition=top;html=1;shadow=0;dashed=0;verticalAlign=bottom;strokeWidth=1;shape=mxgraph.ios.iPin;fillColor2=#00dd00;fillColor3=#004400;strokeColor=#006600;" parent="1" vertex="1">
          <mxGeometry x="173" y="1390" height="10" as="geometry" />
        </mxCell>
        <mxCell id="U05u6-LTrtxGhppZVjrv-131" value="" style="shape=image;html=1;verticalAlign=top;verticalLabelPosition=bottom;labelBackgroundColor=#ffffff;imageAspect=0;aspect=fixed;image=https://cdn1.iconfinder.com/data/icons/iconnice-vector-icon/31/Vector-icons_23-128.png" parent="1" vertex="1">
          <mxGeometry x="268" y="1385" width="10" height="10" as="geometry" />
        </mxCell>
        <mxCell id="U05u6-LTrtxGhppZVjrv-132" value="" style="shape=image;html=1;verticalAlign=top;verticalLabelPosition=bottom;labelBackgroundColor=#ffffff;imageAspect=0;aspect=fixed;image=https://cdn1.iconfinder.com/data/icons/iconnice-vector-icon/31/Vector-icons_23-128.png" parent="1" vertex="1">
          <mxGeometry x="268" y="1405" width="10" height="10" as="geometry" />
        </mxCell>
        <mxCell id="U05u6-LTrtxGhppZVjrv-133" value="&lt;font size=&quot;1&quot;&gt;EMAIL&lt;/font&gt;" style="text;html=1;align=center;verticalAlign=middle;whiteSpace=wrap;rounded=0;" parent="1" vertex="1">
          <mxGeometry x="283" y="1397.5" width="40" height="20" as="geometry" />
        </mxCell>
        <mxCell id="U05u6-LTrtxGhppZVjrv-134" value="&lt;font size=&quot;1&quot;&gt;Contact Us&lt;/font&gt;" style="text;html=1;align=center;verticalAlign=middle;whiteSpace=wrap;rounded=0;" parent="1" vertex="1">
          <mxGeometry x="33" y="1390" width="60" height="20" as="geometry" />
        </mxCell>
        <mxCell id="U05u6-LTrtxGhppZVjrv-135" value="&lt;font size=&quot;1&quot;&gt;About Us&lt;/font&gt;" style="text;html=1;align=center;verticalAlign=middle;whiteSpace=wrap;rounded=0;" parent="1" vertex="1">
          <mxGeometry x="163" y="1390" width="60" height="20" as="geometry" />
        </mxCell>
        <mxCell id="U05u6-LTrtxGhppZVjrv-136" value="&lt;font size=&quot;1&quot;&gt;Clinicians&lt;/font&gt;" style="text;html=1;align=center;verticalAlign=middle;whiteSpace=wrap;rounded=0;" parent="1" vertex="1">
          <mxGeometry x="103" y="1390" width="50" height="20" as="geometry" />
        </mxCell>
        <mxCell id="U05u6-LTrtxGhppZVjrv-137" value="&lt;b&gt;&lt;i&gt;Personal Information&lt;/i&gt;&lt;/b&gt;" style="text;html=1;align=center;verticalAlign=middle;whiteSpace=wrap;rounded=0;" parent="1" vertex="1">
          <mxGeometry x="-193" y="1040" width="150" height="30" as="geometry" />
        </mxCell>
        <mxCell id="U05u6-LTrtxGhppZVjrv-138" value="&lt;b&gt;&lt;i&gt;Contact Information&lt;/i&gt;&lt;/b&gt;" style="text;html=1;align=center;verticalAlign=middle;whiteSpace=wrap;rounded=0;" parent="1" vertex="1">
          <mxGeometry x="-193" y="1140" width="150" height="30" as="geometry" />
        </mxCell>
        <mxCell id="U05u6-LTrtxGhppZVjrv-139" value="&lt;font color=&quot;#727272&quot;&gt;Phone Number&lt;/font&gt;" style="rounded=1;whiteSpace=wrap;html=1;labelBackgroundColor=default;fillColor=#f5f5f5;fontColor=#333333;strokeColor=#666666;" parent="1" vertex="1">
          <mxGeometry x="-180.5" y="1170" width="250" height="30" as="geometry" />
        </mxCell>
        <mxCell id="U05u6-LTrtxGhppZVjrv-140" value="&lt;font color=&quot;#727272&quot;&gt;Email ID&lt;/font&gt;" style="rounded=1;whiteSpace=wrap;html=1;labelBackgroundColor=default;fillColor=#f5f5f5;fontColor=#333333;strokeColor=#666666;" parent="1" vertex="1">
          <mxGeometry x="97" y="1170" width="250" height="30" as="geometry" />
        </mxCell>
        <mxCell id="U05u6-LTrtxGhppZVjrv-141" value="&lt;b&gt;&lt;i&gt;Symptoms&lt;/i&gt;&lt;/b&gt;" style="text;html=1;align=center;verticalAlign=middle;whiteSpace=wrap;rounded=0;" parent="1" vertex="1">
          <mxGeometry x="-180.5" y="1200" width="70" height="30" as="geometry" />
        </mxCell>
        <mxCell id="U05u6-LTrtxGhppZVjrv-142" value="&lt;font color=&quot;#727272&quot;&gt;Symptom 1&lt;/font&gt;" style="rounded=1;whiteSpace=wrap;html=1;labelBackgroundColor=default;fillColor=#f5f5f5;fontColor=#333333;strokeColor=#666666;" parent="1" vertex="1">
          <mxGeometry x="-180.5" y="1230" width="250" height="30" as="geometry" />
        </mxCell>
        <mxCell id="U05u6-LTrtxGhppZVjrv-143" value="&lt;font color=&quot;#727272&quot;&gt;Symptom 2&lt;/font&gt;" style="rounded=1;whiteSpace=wrap;html=1;labelBackgroundColor=default;fillColor=#f5f5f5;fontColor=#333333;strokeColor=#666666;" parent="1" vertex="1">
          <mxGeometry x="97" y="1230" width="250" height="30" as="geometry" />
        </mxCell>
        <mxCell id="U05u6-LTrtxGhppZVjrv-144" value="&lt;font color=&quot;#727272&quot;&gt;Symptom 3&lt;/font&gt;" style="rounded=1;whiteSpace=wrap;html=1;labelBackgroundColor=default;fillColor=#f5f5f5;fontColor=#333333;strokeColor=#666666;" parent="1" vertex="1">
          <mxGeometry x="-180.5" y="1270" width="250" height="30" as="geometry" />
        </mxCell>
        <mxCell id="U05u6-LTrtxGhppZVjrv-145" value="&lt;font color=&quot;#727272&quot;&gt;Symptom 4&lt;/font&gt;" style="rounded=1;whiteSpace=wrap;html=1;labelBackgroundColor=default;fillColor=#f5f5f5;fontColor=#333333;strokeColor=#666666;" parent="1" vertex="1">
          <mxGeometry x="97" y="1270" width="250" height="30" as="geometry" />
        </mxCell>
        <mxCell id="U05u6-LTrtxGhppZVjrv-146" value="&lt;font color=&quot;#727272&quot;&gt;Symptom 5&lt;/font&gt;" style="rounded=1;whiteSpace=wrap;html=1;labelBackgroundColor=default;fillColor=#f5f5f5;fontColor=#333333;strokeColor=#666666;" parent="1" vertex="1">
          <mxGeometry x="-180.5" y="1310" width="250" height="30" as="geometry" />
        </mxCell>
        <mxCell id="U05u6-LTrtxGhppZVjrv-147" value="&lt;font color=&quot;#727272&quot;&gt;Patient ID&lt;/font&gt;" style="rounded=1;whiteSpace=wrap;html=1;labelBackgroundColor=default;fillColor=#f5f5f5;fontColor=#333333;strokeColor=#666666;" parent="1" vertex="1">
          <mxGeometry x="-180.5" y="1110" width="250" height="30" as="geometry" />
        </mxCell>
        <mxCell id="U05u6-LTrtxGhppZVjrv-148" value="&lt;font color=&quot;#727272&quot;&gt;Address&lt;/font&gt;" style="rounded=1;whiteSpace=wrap;html=1;labelBackgroundColor=default;fillColor=#f5f5f5;fontColor=#333333;strokeColor=#666666;" parent="1" vertex="1">
          <mxGeometry x="97" y="1110" width="250" height="30" as="geometry" />
        </mxCell>
        <mxCell id="U05u6-LTrtxGhppZVjrv-149" value="&lt;h1 style=&quot;margin-top: 0px;&quot;&gt;&lt;br&gt;&lt;/h1&gt;&lt;p&gt;&lt;font style=&quot;font-size: 8px;&quot;&gt;Lorem ipsum dolor sit amet, consectetur adipisicing elit, sed do eiusmod&amp;nbsp;&lt;/font&gt;&lt;/p&gt;" style="text;html=1;whiteSpace=wrap;overflow=hidden;rounded=0;" parent="1" vertex="1">
          <mxGeometry x="-172" y="1350" width="180" height="80" as="geometry" />
        </mxCell>
        <mxCell id="U05u6-LTrtxGhppZVjrv-150" value="" style="verticalLabelPosition=bottom;verticalAlign=top;html=1;shadow=0;dashed=0;strokeWidth=1;shape=mxgraph.android.tab2;strokeColor=#c0c0c0;direction=north;" parent="1" vertex="1">
          <mxGeometry x="-270" y="1600" width="690" height="1090" as="geometry" />
        </mxCell>
        <mxCell id="U05u6-LTrtxGhppZVjrv-151" value="" style="html=1;strokeWidth=1;shadow=0;dashed=0;shape=mxgraph.ios7ui.appBar;fillColor=#ffffff;gradientColor=none;sketch=0;hachureGap=4;pointerEvents=0;fontFamily=Architects Daughter;fontSource=https%3A%2F%2Ffonts.googleapis.com%2Fcss%3Ffamily%3DArchitects%2BDaughter;fontSize=20;" parent="1" vertex="1">
          <mxGeometry x="-210" y="1730" width="570" height="15" as="geometry" />
        </mxCell>
        <mxCell id="U05u6-LTrtxGhppZVjrv-152" value="CARRIER" style="shape=rect;align=left;fontSize=8;spacingLeft=24;fontSize=4;fontColor=#aaaaaa;strokeColor=none;fillColor=none;spacingTop=0;sketch=0;hachureGap=4;pointerEvents=0;fontFamily=Helvetica;html=1;" parent="U05u6-LTrtxGhppZVjrv-151" vertex="1">
          <mxGeometry y="0.5" width="50" height="13" relative="1" as="geometry">
            <mxPoint y="-6.5" as="offset" />
          </mxGeometry>
        </mxCell>
        <mxCell id="U05u6-LTrtxGhppZVjrv-153" value="11:55PM" style="shape=rect;fontSize=8;fontColor=#aaaaaa;strokeColor=none;fillColor=none;spacingTop=0;sketch=0;hachureGap=4;pointerEvents=0;fontFamily=Helvetica;html=1;" parent="U05u6-LTrtxGhppZVjrv-151" vertex="1">
          <mxGeometry x="0.5" y="0.5" width="50" height="13" relative="1" as="geometry">
            <mxPoint x="-25" y="-6.5" as="offset" />
          </mxGeometry>
        </mxCell>
        <mxCell id="U05u6-LTrtxGhppZVjrv-154" value="98%" style="shape=rect;align=right;fontSize=8;spacingRight=19;fontSize=6;fontColor=#aaaaaa;strokeColor=none;fillColor=none;spacingTop=0;sketch=0;hachureGap=4;pointerEvents=0;fontFamily=Helvetica;html=1;" parent="U05u6-LTrtxGhppZVjrv-151" vertex="1">
          <mxGeometry x="1" y="0.5" width="45" height="13" relative="1" as="geometry">
            <mxPoint x="-45" y="-6.5" as="offset" />
          </mxGeometry>
        </mxCell>
        <mxCell id="U05u6-LTrtxGhppZVjrv-155" value="" style="verticalLabelPosition=bottom;verticalAlign=top;html=1;shadow=0;dashed=0;strokeWidth=1;shape=mxgraph.android.contact_badge_normal;sketch=0;" parent="1" vertex="1">
          <mxGeometry x="330" y="1750" width="20" height="20" as="geometry" />
        </mxCell>
        <mxCell id="U05u6-LTrtxGhppZVjrv-156" value="" style="shape=image;html=1;verticalAlign=top;verticalLabelPosition=bottom;labelBackgroundColor=#ffffff;imageAspect=0;aspect=fixed;image=https://cdn4.iconfinder.com/data/icons/basic-user-interface-2/512/User_Interface-33-128.png" parent="1" vertex="1">
          <mxGeometry x="-210" y="1740" width="40" height="40" as="geometry" />
        </mxCell>
        <mxCell id="U05u6-LTrtxGhppZVjrv-157" value="CHEST RAY" style="text;html=1;align=center;verticalAlign=middle;whiteSpace=wrap;rounded=0;" parent="1" vertex="1">
          <mxGeometry x="-170" y="1745" width="80" height="30" as="geometry" />
        </mxCell>
        <mxCell id="U05u6-LTrtxGhppZVjrv-158" value="Home&lt;b&gt;&amp;nbsp;&lt;/b&gt;&amp;nbsp; &amp;nbsp; &amp;nbsp; &amp;nbsp; &amp;nbsp; &amp;nbsp; &amp;nbsp; &amp;nbsp; &amp;nbsp; &amp;nbsp;Patient Records&amp;nbsp; &amp;nbsp; &amp;nbsp; &amp;nbsp; &amp;nbsp; &amp;nbsp; &amp;nbsp; &amp;nbsp; Clinician Reviews" style="rounded=1;html=1;shadow=0;dashed=0;whiteSpace=wrap;fontSize=10;fillColor=#CCCCCC;align=center;strokeColor=#666666;fontColor=#333333;strokeWidth=2;" parent="1" vertex="1">
          <mxGeometry x="-200" y="1775" width="550" height="26.88" as="geometry" />
        </mxCell>
        <mxCell id="U05u6-LTrtxGhppZVjrv-159" value="" style="rounded=1;whiteSpace=wrap;html=1;" parent="1" vertex="1">
          <mxGeometry x="-216" y="2510" width="582" height="60" as="geometry" />
        </mxCell>
        <mxCell id="U05u6-LTrtxGhppZVjrv-160" value="&lt;font style=&quot;font-size: 17px;&quot;&gt;&lt;b&gt;&lt;i&gt;CHEST RAY&lt;/i&gt;&lt;/b&gt;&lt;/font&gt;" style="text;html=1;align=center;verticalAlign=middle;whiteSpace=wrap;rounded=0;" parent="1" vertex="1">
          <mxGeometry x="-187.5" y="2517.5" width="115" height="30" as="geometry" />
        </mxCell>
        <mxCell id="U05u6-LTrtxGhppZVjrv-161" value="" style="shape=image;html=1;verticalAlign=top;verticalLabelPosition=bottom;labelBackgroundColor=#ffffff;imageAspect=0;aspect=fixed;image=https://cdn4.iconfinder.com/data/icons/app-custom-ui-1/48/Picture-128.png" parent="1" vertex="1">
          <mxGeometry x="-200" y="2525" width="15" height="15" as="geometry" />
        </mxCell>
        <mxCell id="U05u6-LTrtxGhppZVjrv-162" value="&lt;font style=&quot;font-size: 9px;&quot;&gt;CONTACT&lt;/font&gt;" style="text;html=1;align=center;verticalAlign=middle;whiteSpace=wrap;rounded=0;" parent="1" vertex="1">
          <mxGeometry x="270" y="2520" width="50" height="20" as="geometry" />
        </mxCell>
        <mxCell id="U05u6-LTrtxGhppZVjrv-163" value="" style="verticalLabelPosition=top;html=1;shadow=0;dashed=0;verticalAlign=bottom;strokeWidth=1;shape=mxgraph.ios.iPin;fillColor2=#00dd00;fillColor3=#004400;strokeColor=#006600;" parent="1" vertex="1">
          <mxGeometry x="160" y="2530" height="10" as="geometry" />
        </mxCell>
        <mxCell id="U05u6-LTrtxGhppZVjrv-164" value="" style="shape=image;html=1;verticalAlign=top;verticalLabelPosition=bottom;labelBackgroundColor=#ffffff;imageAspect=0;aspect=fixed;image=https://cdn1.iconfinder.com/data/icons/iconnice-vector-icon/31/Vector-icons_23-128.png" parent="1" vertex="1">
          <mxGeometry x="255" y="2525" width="10" height="10" as="geometry" />
        </mxCell>
        <mxCell id="U05u6-LTrtxGhppZVjrv-165" value="" style="shape=image;html=1;verticalAlign=top;verticalLabelPosition=bottom;labelBackgroundColor=#ffffff;imageAspect=0;aspect=fixed;image=https://cdn1.iconfinder.com/data/icons/iconnice-vector-icon/31/Vector-icons_23-128.png" parent="1" vertex="1">
          <mxGeometry x="255" y="2545" width="10" height="10" as="geometry" />
        </mxCell>
        <mxCell id="U05u6-LTrtxGhppZVjrv-166" value="&lt;font size=&quot;1&quot;&gt;EMAIL&lt;/font&gt;" style="text;html=1;align=center;verticalAlign=middle;whiteSpace=wrap;rounded=0;" parent="1" vertex="1">
          <mxGeometry x="270" y="2537.5" width="40" height="20" as="geometry" />
        </mxCell>
        <mxCell id="U05u6-LTrtxGhppZVjrv-167" value="&lt;font size=&quot;1&quot;&gt;Contact Us&lt;/font&gt;" style="text;html=1;align=center;verticalAlign=middle;whiteSpace=wrap;rounded=0;" parent="1" vertex="1">
          <mxGeometry x="20" y="2530" width="60" height="20" as="geometry" />
        </mxCell>
        <mxCell id="U05u6-LTrtxGhppZVjrv-168" value="&lt;font size=&quot;1&quot;&gt;About Us&lt;/font&gt;" style="text;html=1;align=center;verticalAlign=middle;whiteSpace=wrap;rounded=0;" parent="1" vertex="1">
          <mxGeometry x="150" y="2530" width="60" height="20" as="geometry" />
        </mxCell>
        <mxCell id="U05u6-LTrtxGhppZVjrv-169" value="&lt;font size=&quot;1&quot;&gt;Clinicians&lt;/font&gt;" style="text;html=1;align=center;verticalAlign=middle;whiteSpace=wrap;rounded=0;" parent="1" vertex="1">
          <mxGeometry x="90" y="2530" width="50" height="20" as="geometry" />
        </mxCell>
        <mxCell id="U05u6-LTrtxGhppZVjrv-170" value="" style="shape=image;html=1;verticalAlign=top;verticalLabelPosition=bottom;labelBackgroundColor=#ffffff;imageAspect=0;aspect=fixed;image=https://cdn4.iconfinder.com/data/icons/essential-part-1/32/33-Picture-128.png" parent="1" vertex="1">
          <mxGeometry x="-200" y="1810" width="40" height="40" as="geometry" />
        </mxCell>
        <mxCell id="U05u6-LTrtxGhppZVjrv-171" value="&lt;b&gt;&lt;font style=&quot;font-size: 14px;&quot;&gt;Patient ID&lt;/font&gt;&lt;/b&gt;" style="text;html=1;align=center;verticalAlign=middle;whiteSpace=wrap;rounded=0;" parent="1" vertex="1">
          <mxGeometry x="-157.5" y="1890" width="70" height="30" as="geometry" />
        </mxCell>
        <mxCell id="U05u6-LTrtxGhppZVjrv-172" value="&lt;font color=&quot;#727272&quot;&gt;Full Name&lt;/font&gt;" style="rounded=1;whiteSpace=wrap;html=1;labelBackgroundColor=default;fillColor=#f5f5f5;fontColor=#333333;strokeColor=#666666;" parent="1" vertex="1">
          <mxGeometry x="-197.5" y="1891.88" width="250" height="30" as="geometry" />
        </mxCell>
        <mxCell id="U05u6-LTrtxGhppZVjrv-173" value="&lt;font color=&quot;#727272&quot;&gt;Age&lt;/font&gt;" style="rounded=1;whiteSpace=wrap;html=1;labelBackgroundColor=default;fillColor=#f5f5f5;fontColor=#333333;strokeColor=#666666;" parent="1" vertex="1">
          <mxGeometry x="80" y="1891.88" width="250" height="30" as="geometry" />
        </mxCell>
        <mxCell id="U05u6-LTrtxGhppZVjrv-174" value="&lt;b&gt;&lt;i&gt;Personal Information&lt;/i&gt;&lt;/b&gt;" style="text;html=1;align=center;verticalAlign=middle;whiteSpace=wrap;rounded=0;" parent="1" vertex="1">
          <mxGeometry x="-210" y="1860" width="150" height="30" as="geometry" />
        </mxCell>
        <mxCell id="U05u6-LTrtxGhppZVjrv-175" value="&lt;b&gt;&lt;i&gt;Contact Information&lt;/i&gt;&lt;/b&gt;" style="text;html=1;align=center;verticalAlign=middle;whiteSpace=wrap;rounded=0;" parent="1" vertex="1">
          <mxGeometry x="-210" y="1961.88" width="150" height="30" as="geometry" />
        </mxCell>
        <mxCell id="U05u6-LTrtxGhppZVjrv-176" value="&lt;font color=&quot;#727272&quot;&gt;Phone Number&lt;/font&gt;" style="rounded=1;whiteSpace=wrap;html=1;labelBackgroundColor=default;fillColor=#f5f5f5;fontColor=#333333;strokeColor=#666666;" parent="1" vertex="1">
          <mxGeometry x="-197.5" y="1991.88" width="250" height="30" as="geometry" />
        </mxCell>
        <mxCell id="U05u6-LTrtxGhppZVjrv-177" value="&lt;font color=&quot;#727272&quot;&gt;Email ID&lt;/font&gt;" style="rounded=1;whiteSpace=wrap;html=1;labelBackgroundColor=default;fillColor=#f5f5f5;fontColor=#333333;strokeColor=#666666;" parent="1" vertex="1">
          <mxGeometry x="80" y="1991.88" width="250" height="30" as="geometry" />
        </mxCell>
        <mxCell id="U05u6-LTrtxGhppZVjrv-178" value="&lt;b&gt;&lt;i&gt;Symptoms&lt;/i&gt;&lt;/b&gt;" style="text;html=1;align=center;verticalAlign=middle;whiteSpace=wrap;rounded=0;" parent="1" vertex="1">
          <mxGeometry x="-197.5" y="2021.88" width="70" height="30" as="geometry" />
        </mxCell>
        <mxCell id="U05u6-LTrtxGhppZVjrv-179" value="&lt;font color=&quot;#727272&quot;&gt;Symptom 1&lt;/font&gt;" style="rounded=1;whiteSpace=wrap;html=1;labelBackgroundColor=default;fillColor=#f5f5f5;fontColor=#333333;strokeColor=#666666;" parent="1" vertex="1">
          <mxGeometry x="-197.5" y="2051.88" width="250" height="30" as="geometry" />
        </mxCell>
        <mxCell id="U05u6-LTrtxGhppZVjrv-180" value="&lt;font color=&quot;#727272&quot;&gt;Symptom 2&lt;/font&gt;" style="rounded=1;whiteSpace=wrap;html=1;labelBackgroundColor=default;fillColor=#f5f5f5;fontColor=#333333;strokeColor=#666666;" parent="1" vertex="1">
          <mxGeometry x="80" y="2051.88" width="250" height="30" as="geometry" />
        </mxCell>
        <mxCell id="U05u6-LTrtxGhppZVjrv-181" value="&lt;font color=&quot;#727272&quot;&gt;Symptom 3&lt;/font&gt;" style="rounded=1;whiteSpace=wrap;html=1;labelBackgroundColor=default;fillColor=#f5f5f5;fontColor=#333333;strokeColor=#666666;" parent="1" vertex="1">
          <mxGeometry x="-197.5" y="2091.88" width="250" height="30" as="geometry" />
        </mxCell>
        <mxCell id="U05u6-LTrtxGhppZVjrv-182" value="&lt;font color=&quot;#727272&quot;&gt;Symptom 4&lt;/font&gt;" style="rounded=1;whiteSpace=wrap;html=1;labelBackgroundColor=default;fillColor=#f5f5f5;fontColor=#333333;strokeColor=#666666;" parent="1" vertex="1">
          <mxGeometry x="80" y="2091.88" width="250" height="30" as="geometry" />
        </mxCell>
        <mxCell id="U05u6-LTrtxGhppZVjrv-183" value="&lt;font color=&quot;#727272&quot;&gt;Symptom 5&lt;/font&gt;" style="rounded=1;whiteSpace=wrap;html=1;labelBackgroundColor=default;fillColor=#f5f5f5;fontColor=#333333;strokeColor=#666666;" parent="1" vertex="1">
          <mxGeometry x="-197.5" y="2131.88" width="250" height="30" as="geometry" />
        </mxCell>
        <mxCell id="U05u6-LTrtxGhppZVjrv-184" value="&lt;font color=&quot;#727272&quot;&gt;Patient ID&lt;/font&gt;" style="rounded=1;whiteSpace=wrap;html=1;labelBackgroundColor=default;fillColor=#f5f5f5;fontColor=#333333;strokeColor=#666666;" parent="1" vertex="1">
          <mxGeometry x="-197.5" y="1931.88" width="250" height="30" as="geometry" />
        </mxCell>
        <mxCell id="U05u6-LTrtxGhppZVjrv-185" value="&lt;font color=&quot;#727272&quot;&gt;Address&lt;/font&gt;" style="rounded=1;whiteSpace=wrap;html=1;labelBackgroundColor=default;fillColor=#f5f5f5;fontColor=#333333;strokeColor=#666666;" parent="1" vertex="1">
          <mxGeometry x="80" y="1931.88" width="250" height="30" as="geometry" />
        </mxCell>
        <mxCell id="U05u6-LTrtxGhppZVjrv-186" value="&lt;h1 style=&quot;margin-top: 0px;&quot;&gt;&lt;br&gt;&lt;/h1&gt;&lt;p&gt;&lt;font style=&quot;font-size: 8px;&quot;&gt;Lorem ipsum dolor sit amet, consectetur adipisicing elit, sed do eiusmod&amp;nbsp;&lt;/font&gt;&lt;/p&gt;" style="text;html=1;whiteSpace=wrap;overflow=hidden;rounded=0;" parent="1" vertex="1">
          <mxGeometry x="-180" y="2490" width="180" height="76.88" as="geometry" />
        </mxCell>
        <mxCell id="U05u6-LTrtxGhppZVjrv-187" value="&lt;h1 style=&quot;margin-top: 0px;&quot;&gt;&lt;font style=&quot;font-size: 18px;&quot;&gt;Patient ID&lt;/font&gt;&lt;/h1&gt;&lt;p&gt;&lt;br&gt;&lt;/p&gt;" style="text;html=1;whiteSpace=wrap;overflow=hidden;rounded=0;" parent="1" vertex="1">
          <mxGeometry x="-150" y="1810" width="270" height="30" as="geometry" />
        </mxCell>
        <mxCell id="U05u6-LTrtxGhppZVjrv-188" value="&lt;b&gt;&lt;i&gt;Upload X-Ray Image&lt;/i&gt;&lt;/b&gt;" style="text;html=1;align=center;verticalAlign=middle;whiteSpace=wrap;rounded=0;" parent="1" vertex="1">
          <mxGeometry x="-210" y="2161.88" width="150" height="30" as="geometry" />
        </mxCell>
        <mxCell id="U05u6-LTrtxGhppZVjrv-189" value="" style="shape=image;html=1;verticalAlign=top;verticalLabelPosition=bottom;labelBackgroundColor=#ffffff;imageAspect=0;aspect=fixed;image=https://cdn4.iconfinder.com/data/icons/essential-part-1/32/33-Picture-128.png" parent="1" vertex="1">
          <mxGeometry x="-194" y="2191.88" width="158.12" height="158.12" as="geometry" />
        </mxCell>
        <mxCell id="U05u6-LTrtxGhppZVjrv-190" value="Choose File" style="rounded=1;html=1;shadow=0;dashed=0;whiteSpace=wrap;fontSize=10;fillColor=#999999;align=center;strokeColor=#666666;fontColor=#ffffff;strokeWidth=2;" parent="1" vertex="1">
          <mxGeometry x="-191.22" y="2356.88" width="71.22" height="16.88" as="geometry" />
        </mxCell>
        <mxCell id="U05u6-LTrtxGhppZVjrv-191" value="Upload Image" style="rounded=1;html=1;shadow=0;dashed=0;whiteSpace=wrap;fontSize=10;fillColor=#999999;align=center;strokeColor=#666666;fontColor=#ffffff;strokeWidth=2;" parent="1" vertex="1">
          <mxGeometry x="-110" y="2356.88" width="85.5" height="16.88" as="geometry" />
        </mxCell>
        <mxCell id="U05u6-LTrtxGhppZVjrv-192" value="Save" style="rounded=1;html=1;shadow=0;dashed=0;whiteSpace=wrap;fontSize=10;fillColor=#999999;align=center;strokeColor=#666666;fontColor=#ffffff;strokeWidth=2;" parent="1" vertex="1">
          <mxGeometry x="244.5" y="2310" width="85.5" height="16.88" as="geometry" />
        </mxCell>
        <mxCell id="U05u6-LTrtxGhppZVjrv-193" value="&lt;b&gt;&lt;i&gt;&lt;font style=&quot;font-size: 16px;&quot;&gt;Report&lt;/font&gt;&lt;/i&gt;&lt;/b&gt;" style="text;html=1;align=center;verticalAlign=middle;whiteSpace=wrap;rounded=0;" parent="1" vertex="1">
          <mxGeometry x="80" y="2180" width="70" height="30" as="geometry" />
        </mxCell>
        <mxCell id="U05u6-LTrtxGhppZVjrv-194" value="&lt;font color=&quot;#727272&quot;&gt;Confidence Percentage&lt;/font&gt;" style="rounded=1;whiteSpace=wrap;html=1;labelBackgroundColor=default;fillColor=#f5f5f5;fontColor=#333333;strokeColor=#666666;" parent="1" vertex="1">
          <mxGeometry x="80" y="2270" width="250" height="30" as="geometry" />
        </mxCell>
        <mxCell id="U05u6-LTrtxGhppZVjrv-195" value="&lt;font color=&quot;#727272&quot;&gt;Result Prediction&lt;/font&gt;" style="rounded=1;whiteSpace=wrap;html=1;labelBackgroundColor=default;fillColor=#f5f5f5;fontColor=#333333;strokeColor=#666666;" parent="1" vertex="1">
          <mxGeometry x="80" y="2220" width="250" height="30" as="geometry" />
        </mxCell>
        <mxCell id="U05u6-LTrtxGhppZVjrv-196" value="&lt;b&gt;&lt;i&gt;Clinician Review&lt;/i&gt;&lt;/b&gt;" style="text;html=1;align=center;verticalAlign=middle;whiteSpace=wrap;rounded=0;" parent="1" vertex="1">
          <mxGeometry x="-190.61" y="2380" width="110.61" height="30" as="geometry" />
        </mxCell>
        <mxCell id="U05u6-LTrtxGhppZVjrv-197" value="&lt;font color=&quot;#727272&quot;&gt;Review&lt;/font&gt;" style="rounded=1;whiteSpace=wrap;html=1;labelBackgroundColor=default;fillColor=#f5f5f5;fontColor=#333333;strokeColor=#666666;" parent="1" vertex="1">
          <mxGeometry x="-200" y="2410" width="250" height="30" as="geometry" />
        </mxCell>
        <mxCell id="U05u6-LTrtxGhppZVjrv-198" value="&lt;font color=&quot;#727272&quot;&gt;Review&lt;/font&gt;" style="rounded=1;whiteSpace=wrap;html=1;labelBackgroundColor=default;fillColor=#f5f5f5;fontColor=#333333;strokeColor=#666666;" parent="1" vertex="1">
          <mxGeometry x="-200" y="2450" width="250" height="30" as="geometry" />
        </mxCell>
        <mxCell id="U05u6-LTrtxGhppZVjrv-199" value="&lt;font color=&quot;#727272&quot;&gt;Review&lt;/font&gt;" style="rounded=1;whiteSpace=wrap;html=1;labelBackgroundColor=default;fillColor=#f5f5f5;fontColor=#333333;strokeColor=#666666;" parent="1" vertex="1">
          <mxGeometry x="80" y="2410" width="250" height="30" as="geometry" />
        </mxCell>
        <mxCell id="U05u6-LTrtxGhppZVjrv-200" value="" style="endArrow=classic;html=1;rounded=0;exitX=-0.011;exitY=0.551;exitDx=0;exitDy=0;exitPerimeter=0;entryX=0.997;entryY=0.507;entryDx=0;entryDy=0;entryPerimeter=0;" parent="1" source="U05u6-LTrtxGhppZVjrv-68" target="U05u6-LTrtxGhppZVjrv-150" edge="1">
          <mxGeometry width="50" height="50" relative="1" as="geometry">
            <mxPoint x="-380" y="1420" as="sourcePoint" />
            <mxPoint x="-330" y="1370" as="targetPoint" />
            <Array as="points">
              <mxPoint x="-735" y="1560" />
              <mxPoint x="80" y="1560" />
            </Array>
          </mxGeometry>
        </mxCell>
        <mxCell id="U05u6-LTrtxGhppZVjrv-201" value="" style="verticalLabelPosition=bottom;verticalAlign=top;html=1;shadow=0;dashed=0;strokeWidth=1;shape=mxgraph.android.tab2;strokeColor=#c0c0c0;direction=north;" parent="1" vertex="1">
          <mxGeometry x="-1169" y="1653" width="690" height="1067" as="geometry" />
        </mxCell>
        <mxCell id="U05u6-LTrtxGhppZVjrv-202" value="" style="html=1;strokeWidth=1;shadow=0;dashed=0;shape=mxgraph.ios7ui.appBar;fillColor=#ffffff;gradientColor=none;sketch=0;hachureGap=4;pointerEvents=0;fontFamily=Architects Daughter;fontSource=https%3A%2F%2Ffonts.googleapis.com%2Fcss%3Ffamily%3DArchitects%2BDaughter;fontSize=20;" parent="1" vertex="1">
          <mxGeometry x="-1115" y="1786.88" width="570" height="15" as="geometry" />
        </mxCell>
        <mxCell id="U05u6-LTrtxGhppZVjrv-203" value="CARRIER" style="shape=rect;align=left;fontSize=8;spacingLeft=24;fontSize=4;fontColor=#aaaaaa;strokeColor=none;fillColor=none;spacingTop=0;sketch=0;hachureGap=4;pointerEvents=0;fontFamily=Helvetica;html=1;" parent="U05u6-LTrtxGhppZVjrv-202" vertex="1">
          <mxGeometry y="0.5" width="50" height="13" relative="1" as="geometry">
            <mxPoint y="-6.5" as="offset" />
          </mxGeometry>
        </mxCell>
        <mxCell id="U05u6-LTrtxGhppZVjrv-204" value="11:55PM" style="shape=rect;fontSize=8;fontColor=#aaaaaa;strokeColor=none;fillColor=none;spacingTop=0;sketch=0;hachureGap=4;pointerEvents=0;fontFamily=Helvetica;html=1;" parent="U05u6-LTrtxGhppZVjrv-202" vertex="1">
          <mxGeometry x="0.5" y="0.5" width="50" height="13" relative="1" as="geometry">
            <mxPoint x="-25" y="-6.5" as="offset" />
          </mxGeometry>
        </mxCell>
        <mxCell id="U05u6-LTrtxGhppZVjrv-205" value="98%" style="shape=rect;align=right;fontSize=8;spacingRight=19;fontSize=6;fontColor=#aaaaaa;strokeColor=none;fillColor=none;spacingTop=0;sketch=0;hachureGap=4;pointerEvents=0;fontFamily=Helvetica;html=1;" parent="U05u6-LTrtxGhppZVjrv-202" vertex="1">
          <mxGeometry x="1" y="0.5" width="45" height="13" relative="1" as="geometry">
            <mxPoint x="-45" y="-6.5" as="offset" />
          </mxGeometry>
        </mxCell>
        <mxCell id="U05u6-LTrtxGhppZVjrv-206" value="" style="verticalLabelPosition=bottom;verticalAlign=top;html=1;shadow=0;dashed=0;strokeWidth=1;shape=mxgraph.android.contact_badge_normal;sketch=0;" parent="1" vertex="1">
          <mxGeometry x="-575" y="1813.44" width="20" height="20" as="geometry" />
        </mxCell>
        <mxCell id="U05u6-LTrtxGhppZVjrv-207" value="" style="shape=image;html=1;verticalAlign=top;verticalLabelPosition=bottom;labelBackgroundColor=#ffffff;imageAspect=0;aspect=fixed;image=https://cdn4.iconfinder.com/data/icons/basic-user-interface-2/512/User_Interface-33-128.png" parent="1" vertex="1">
          <mxGeometry x="-1115" y="1803.44" width="40" height="40" as="geometry" />
        </mxCell>
        <mxCell id="U05u6-LTrtxGhppZVjrv-208" value="CHEST RAY" style="text;html=1;align=center;verticalAlign=middle;whiteSpace=wrap;rounded=0;" parent="1" vertex="1">
          <mxGeometry x="-1075" y="1808.44" width="80" height="30" as="geometry" />
        </mxCell>
        <mxCell id="U05u6-LTrtxGhppZVjrv-209" value="Home&lt;b&gt;&amp;nbsp;&lt;/b&gt;&amp;nbsp; &amp;nbsp; &amp;nbsp; &amp;nbsp; &amp;nbsp; &amp;nbsp; &amp;nbsp; &amp;nbsp; &amp;nbsp; &amp;nbsp;Patient Records&amp;nbsp; &amp;nbsp; &amp;nbsp; &amp;nbsp; &amp;nbsp; &amp;nbsp; &amp;nbsp; &amp;nbsp; &lt;b&gt;&lt;u&gt;Clinician Reviews&lt;/u&gt;&lt;/b&gt;" style="rounded=1;html=1;shadow=0;dashed=0;whiteSpace=wrap;fontSize=10;fillColor=#CCCCCC;align=center;strokeColor=#666666;fontColor=#333333;strokeWidth=2;" parent="1" vertex="1">
          <mxGeometry x="-1105" y="1838.44" width="550" height="26.88" as="geometry" />
        </mxCell>
        <mxCell id="U05u6-LTrtxGhppZVjrv-210" value="" style="rounded=1;whiteSpace=wrap;html=1;" parent="1" vertex="1">
          <mxGeometry x="-1112" y="2540" width="582" height="60" as="geometry" />
        </mxCell>
        <mxCell id="U05u6-LTrtxGhppZVjrv-211" value="&lt;font style=&quot;font-size: 17px;&quot;&gt;&lt;b&gt;&lt;i&gt;CHEST RAY&lt;/i&gt;&lt;/b&gt;&lt;/font&gt;" style="text;html=1;align=center;verticalAlign=middle;whiteSpace=wrap;rounded=0;" parent="1" vertex="1">
          <mxGeometry x="-1088.5" y="2545" width="115" height="30" as="geometry" />
        </mxCell>
        <mxCell id="U05u6-LTrtxGhppZVjrv-212" value="" style="shape=image;html=1;verticalAlign=top;verticalLabelPosition=bottom;labelBackgroundColor=#ffffff;imageAspect=0;aspect=fixed;image=https://cdn4.iconfinder.com/data/icons/app-custom-ui-1/48/Picture-128.png" parent="1" vertex="1">
          <mxGeometry x="-1101" y="2552.5" width="15" height="15" as="geometry" />
        </mxCell>
        <mxCell id="U05u6-LTrtxGhppZVjrv-213" value="&lt;font style=&quot;font-size: 9px;&quot;&gt;CONTACT&lt;/font&gt;" style="text;html=1;align=center;verticalAlign=middle;whiteSpace=wrap;rounded=0;" parent="1" vertex="1">
          <mxGeometry x="-631" y="2547.5" width="50" height="20" as="geometry" />
        </mxCell>
        <mxCell id="U05u6-LTrtxGhppZVjrv-214" value="" style="verticalLabelPosition=top;html=1;shadow=0;dashed=0;verticalAlign=bottom;strokeWidth=1;shape=mxgraph.ios.iPin;fillColor2=#00dd00;fillColor3=#004400;strokeColor=#006600;" parent="1" vertex="1">
          <mxGeometry x="-741" y="2557.5" height="10" as="geometry" />
        </mxCell>
        <mxCell id="U05u6-LTrtxGhppZVjrv-215" value="" style="shape=image;html=1;verticalAlign=top;verticalLabelPosition=bottom;labelBackgroundColor=#ffffff;imageAspect=0;aspect=fixed;image=https://cdn1.iconfinder.com/data/icons/iconnice-vector-icon/31/Vector-icons_23-128.png" parent="1" vertex="1">
          <mxGeometry x="-646" y="2552.5" width="10" height="10" as="geometry" />
        </mxCell>
        <mxCell id="U05u6-LTrtxGhppZVjrv-216" value="" style="shape=image;html=1;verticalAlign=top;verticalLabelPosition=bottom;labelBackgroundColor=#ffffff;imageAspect=0;aspect=fixed;image=https://cdn1.iconfinder.com/data/icons/iconnice-vector-icon/31/Vector-icons_23-128.png" parent="1" vertex="1">
          <mxGeometry x="-646" y="2572.5" width="10" height="10" as="geometry" />
        </mxCell>
        <mxCell id="U05u6-LTrtxGhppZVjrv-217" value="&lt;font size=&quot;1&quot;&gt;EMAIL&lt;/font&gt;" style="text;html=1;align=center;verticalAlign=middle;whiteSpace=wrap;rounded=0;" parent="1" vertex="1">
          <mxGeometry x="-631" y="2565" width="40" height="20" as="geometry" />
        </mxCell>
        <mxCell id="U05u6-LTrtxGhppZVjrv-218" value="&lt;font size=&quot;1&quot;&gt;Contact Us&lt;/font&gt;" style="text;html=1;align=center;verticalAlign=middle;whiteSpace=wrap;rounded=0;" parent="1" vertex="1">
          <mxGeometry x="-881" y="2557.5" width="60" height="20" as="geometry" />
        </mxCell>
        <mxCell id="U05u6-LTrtxGhppZVjrv-219" value="&lt;font size=&quot;1&quot;&gt;About Us&lt;/font&gt;" style="text;html=1;align=center;verticalAlign=middle;whiteSpace=wrap;rounded=0;" parent="1" vertex="1">
          <mxGeometry x="-751" y="2557.5" width="60" height="20" as="geometry" />
        </mxCell>
        <mxCell id="U05u6-LTrtxGhppZVjrv-220" value="&lt;font size=&quot;1&quot;&gt;Clinicians&lt;/font&gt;" style="text;html=1;align=center;verticalAlign=middle;whiteSpace=wrap;rounded=0;" parent="1" vertex="1">
          <mxGeometry x="-811" y="2557.5" width="50" height="20" as="geometry" />
        </mxCell>
        <mxCell id="U05u6-LTrtxGhppZVjrv-221" value="&lt;b&gt;&lt;i&gt;Pending Cases&lt;/i&gt;&lt;/b&gt;" style="text;html=1;align=center;verticalAlign=middle;whiteSpace=wrap;rounded=0;" parent="1" vertex="1">
          <mxGeometry x="-1131" y="1880" width="150" height="30" as="geometry" />
        </mxCell>
        <mxCell id="U05u6-LTrtxGhppZVjrv-222" value="&lt;h1 style=&quot;margin-top: 0px;&quot;&gt;&lt;br&gt;&lt;/h1&gt;&lt;p&gt;&lt;font style=&quot;font-size: 8px;&quot;&gt;Lorem ipsum dolor sit amet, consectetur adipisicing elit, sed do eiusmod&amp;nbsp;&lt;/font&gt;&lt;/p&gt;" style="text;html=1;whiteSpace=wrap;overflow=hidden;rounded=0;" parent="1" vertex="1">
          <mxGeometry x="-1081" y="2517.5" width="180" height="76.88" as="geometry" />
        </mxCell>
        <mxCell id="U05u6-LTrtxGhppZVjrv-223" value="&lt;b&gt;&lt;i&gt;X-Ray Image&lt;/i&gt;&lt;/b&gt;" style="text;html=1;align=center;verticalAlign=middle;whiteSpace=wrap;rounded=0;" parent="1" vertex="1">
          <mxGeometry x="-1136" y="2121.88" width="150" height="30" as="geometry" />
        </mxCell>
        <mxCell id="U05u6-LTrtxGhppZVjrv-224" value="" style="shape=image;html=1;verticalAlign=top;verticalLabelPosition=bottom;labelBackgroundColor=#ffffff;imageAspect=0;aspect=fixed;image=https://cdn4.iconfinder.com/data/icons/essential-part-1/32/33-Picture-128.png" parent="1" vertex="1">
          <mxGeometry x="-1102.5" y="2158.76" width="198.12" height="198.12" as="geometry" />
        </mxCell>
        <mxCell id="U05u6-LTrtxGhppZVjrv-225" value="&lt;b&gt;&lt;i&gt;&amp;nbsp;Clinician Reviews&lt;/i&gt;&lt;/b&gt;" style="text;html=1;align=center;verticalAlign=middle;whiteSpace=wrap;rounded=0;" parent="1" vertex="1">
          <mxGeometry x="-1126" y="2420" width="140" height="30" as="geometry" />
        </mxCell>
        <mxCell id="U05u6-LTrtxGhppZVjrv-226" value="&lt;b&gt;&lt;i&gt;&lt;font style=&quot;font-size: 13px;&quot;&gt;Report&lt;/font&gt;&lt;/i&gt;&lt;/b&gt;" style="text;html=1;align=center;verticalAlign=middle;whiteSpace=wrap;rounded=0;" parent="1" vertex="1">
          <mxGeometry x="-1115" y="2360" width="70" height="30" as="geometry" />
        </mxCell>
        <mxCell id="U05u6-LTrtxGhppZVjrv-227" value="&lt;font color=&quot;#727272&quot;&gt;Confidence Percentage&lt;/font&gt;" style="rounded=1;whiteSpace=wrap;html=1;labelBackgroundColor=default;fillColor=#f5f5f5;fontColor=#333333;strokeColor=#666666;" parent="1" vertex="1">
          <mxGeometry x="-810" y="2390" width="250" height="30" as="geometry" />
        </mxCell>
        <mxCell id="U05u6-LTrtxGhppZVjrv-228" value="&lt;font color=&quot;#727272&quot;&gt;Result Prediction&lt;/font&gt;" style="rounded=1;whiteSpace=wrap;html=1;labelBackgroundColor=default;fillColor=#f5f5f5;fontColor=#333333;strokeColor=#666666;" parent="1" vertex="1">
          <mxGeometry x="-1106" y="2390" width="250" height="30" as="geometry" />
        </mxCell>
        <mxCell id="U05u6-LTrtxGhppZVjrv-229" value="&lt;font color=&quot;#727272&quot;&gt;Reviews&lt;/font&gt;" style="rounded=1;whiteSpace=wrap;html=1;labelBackgroundColor=default;fillColor=#f5f5f5;fontColor=#333333;strokeColor=#666666;" parent="1" vertex="1">
          <mxGeometry x="-810" y="2487.5" width="250" height="30" as="geometry" />
        </mxCell>
        <mxCell id="U05u6-LTrtxGhppZVjrv-230" value="&lt;font color=&quot;#727272&quot;&gt;Reviews&lt;/font&gt;" style="rounded=1;whiteSpace=wrap;html=1;labelBackgroundColor=default;fillColor=#f5f5f5;fontColor=#333333;strokeColor=#666666;" parent="1" vertex="1">
          <mxGeometry x="-1105" y="2450" width="250" height="30" as="geometry" />
        </mxCell>
        <mxCell id="U05u6-LTrtxGhppZVjrv-231" value="&lt;font color=&quot;#727272&quot;&gt;Reviews&lt;/font&gt;" style="rounded=1;whiteSpace=wrap;html=1;labelBackgroundColor=default;fillColor=#f5f5f5;fontColor=#333333;strokeColor=#666666;" parent="1" vertex="1">
          <mxGeometry x="-1105" y="2490" width="250" height="30" as="geometry" />
        </mxCell>
        <mxCell id="U05u6-LTrtxGhppZVjrv-232" value="Save" style="rounded=1;html=1;shadow=0;dashed=0;whiteSpace=wrap;fontSize=10;fillColor=#999999;align=center;strokeColor=#666666;fontColor=#ffffff;strokeWidth=2;" parent="1" vertex="1">
          <mxGeometry x="-675.5" y="2433.12" width="105.5" height="16.88" as="geometry" />
        </mxCell>
        <mxCell id="U05u6-LTrtxGhppZVjrv-233" value="Summary&lt;span style=&quot;background-color: transparent; color: light-dark(rgb(0, 0, 0), rgb(255, 255, 255));&quot;&gt;&amp;nbsp;&lt;/span&gt;&lt;div&gt;&lt;br&gt;&lt;/div&gt;&lt;div&gt;&lt;br&gt;&lt;/div&gt;&lt;div&gt;&lt;br&gt;&lt;/div&gt;&lt;div&gt;&lt;br&gt;&lt;div&gt;&lt;br&gt;&lt;/div&gt;&lt;/div&gt;" style="rounded=0;whiteSpace=wrap;html=1;" parent="1" vertex="1">
          <mxGeometry x="-730" y="1910" width="160" height="100" as="geometry" />
        </mxCell>
        <mxCell id="U05u6-LTrtxGhppZVjrv-234" value="" style="shape=rect;fillColor=#F6F6F6;strokeColor=none;" parent="1" vertex="1">
          <mxGeometry x="-650" y="1960" width="65" height="40" as="geometry" />
        </mxCell>
        <mxCell id="U05u6-LTrtxGhppZVjrv-235" value="" style="html=1;strokeWidth=1;shadow=0;dashed=0;shape=mxgraph.ios7ui.marginRect;rx=3;ry=3;rectMargin=5;fillColor=#E4E4E4;strokeColor=none;" parent="U05u6-LTrtxGhppZVjrv-234" vertex="1">
          <mxGeometry width="65" height="20" as="geometry" />
        </mxCell>
        <mxCell id="U05u6-LTrtxGhppZVjrv-236" value="" style="html=1;strokeWidth=1;shadow=0;dashed=0;shape=mxgraph.ios7ui.marginRect;rx=3;ry=3;rectMargin=5;fillColor=#E4E4E4;strokeColor=none;" parent="U05u6-LTrtxGhppZVjrv-234" vertex="1">
          <mxGeometry y="20" width="65" height="20" as="geometry" />
        </mxCell>
        <mxCell id="U05u6-LTrtxGhppZVjrv-237" value="" style="html=1;strokeWidth=1;shadow=0;dashed=0;shape=mxgraph.ios7ui.marginRect;rx=3;ry=3;rectMargin=5;fillColor=#E4E4E4;strokeColor=none;" parent="1" vertex="1">
          <mxGeometry x="-675" y="1940" width="90" height="20" as="geometry" />
        </mxCell>
        <mxCell id="U05u6-LTrtxGhppZVjrv-238" value="&lt;font style=&quot;font-size: 10px;&quot;&gt;CASES&lt;/font&gt;" style="text;html=1;align=center;verticalAlign=middle;whiteSpace=wrap;rounded=0;" parent="1" vertex="1">
          <mxGeometry x="-730" y="1935" width="60" height="30" as="geometry" />
        </mxCell>
        <mxCell id="U05u6-LTrtxGhppZVjrv-239" value="&lt;span style=&quot;font-size: 10px;&quot;&gt;Pneumonia&lt;/span&gt;" style="text;html=1;align=center;verticalAlign=middle;whiteSpace=wrap;rounded=0;" parent="1" vertex="1">
          <mxGeometry x="-720" y="1955" width="60" height="30" as="geometry" />
        </mxCell>
        <mxCell id="U05u6-LTrtxGhppZVjrv-240" value="&lt;span style=&quot;font-size: 10px;&quot;&gt;Emergency&lt;/span&gt;" style="text;html=1;align=center;verticalAlign=middle;whiteSpace=wrap;rounded=0;" parent="1" vertex="1">
          <mxGeometry x="-720" y="1973.12" width="60" height="30" as="geometry" />
        </mxCell>
        <mxCell id="U05u6-LTrtxGhppZVjrv-241" value="" style="childLayout=tableLayout;recursiveResize=0;shadow=0;fillColor=none;" parent="1" vertex="1">
          <mxGeometry x="-1101" y="1921.88" width="331" height="188.12" as="geometry" />
        </mxCell>
        <mxCell id="U05u6-LTrtxGhppZVjrv-242" value="" style="shape=tableRow;horizontal=0;startSize=0;swimlaneHead=0;swimlaneBody=0;top=0;left=0;bottom=0;right=0;dropTarget=0;collapsible=0;recursiveResize=0;expand=0;fontStyle=0;fillColor=none;strokeColor=inherit;" parent="U05u6-LTrtxGhppZVjrv-241" vertex="1">
          <mxGeometry width="331" height="63" as="geometry" />
        </mxCell>
        <mxCell id="U05u6-LTrtxGhppZVjrv-243" value="Value 1" style="connectable=0;recursiveResize=0;strokeColor=inherit;fillColor=none;align=center;whiteSpace=wrap;html=1;" parent="U05u6-LTrtxGhppZVjrv-242" vertex="1">
          <mxGeometry width="111" height="63" as="geometry">
            <mxRectangle width="111" height="63" as="alternateBounds" />
          </mxGeometry>
        </mxCell>
        <mxCell id="U05u6-LTrtxGhppZVjrv-244" value="Value 2" style="connectable=0;recursiveResize=0;strokeColor=inherit;fillColor=none;align=center;whiteSpace=wrap;html=1;" parent="U05u6-LTrtxGhppZVjrv-242" vertex="1">
          <mxGeometry x="111" width="109" height="63" as="geometry">
            <mxRectangle width="109" height="63" as="alternateBounds" />
          </mxGeometry>
        </mxCell>
        <mxCell id="U05u6-LTrtxGhppZVjrv-245" value="Value 3" style="connectable=0;recursiveResize=0;strokeColor=inherit;fillColor=none;align=center;whiteSpace=wrap;html=1;" parent="U05u6-LTrtxGhppZVjrv-242" vertex="1">
          <mxGeometry x="220" width="111" height="63" as="geometry">
            <mxRectangle width="111" height="63" as="alternateBounds" />
          </mxGeometry>
        </mxCell>
        <mxCell id="U05u6-LTrtxGhppZVjrv-246" style="shape=tableRow;horizontal=0;startSize=0;swimlaneHead=0;swimlaneBody=0;top=0;left=0;bottom=0;right=0;dropTarget=0;collapsible=0;recursiveResize=0;expand=0;fontStyle=0;fillColor=none;strokeColor=inherit;" parent="U05u6-LTrtxGhppZVjrv-241" vertex="1">
          <mxGeometry y="63" width="331" height="62" as="geometry" />
        </mxCell>
        <mxCell id="U05u6-LTrtxGhppZVjrv-247" value="Value 4" style="connectable=0;recursiveResize=0;strokeColor=inherit;fillColor=none;align=center;whiteSpace=wrap;html=1;" parent="U05u6-LTrtxGhppZVjrv-246" vertex="1">
          <mxGeometry width="111" height="62" as="geometry">
            <mxRectangle width="111" height="62" as="alternateBounds" />
          </mxGeometry>
        </mxCell>
        <mxCell id="U05u6-LTrtxGhppZVjrv-248" value="Value 5" style="connectable=0;recursiveResize=0;strokeColor=inherit;fillColor=none;align=center;whiteSpace=wrap;html=1;" parent="U05u6-LTrtxGhppZVjrv-246" vertex="1">
          <mxGeometry x="111" width="109" height="62" as="geometry">
            <mxRectangle width="109" height="62" as="alternateBounds" />
          </mxGeometry>
        </mxCell>
        <mxCell id="U05u6-LTrtxGhppZVjrv-249" value="Value 6" style="connectable=0;recursiveResize=0;strokeColor=inherit;fillColor=none;align=center;whiteSpace=wrap;html=1;" parent="U05u6-LTrtxGhppZVjrv-246" vertex="1">
          <mxGeometry x="220" width="111" height="62" as="geometry">
            <mxRectangle width="111" height="62" as="alternateBounds" />
          </mxGeometry>
        </mxCell>
        <mxCell id="U05u6-LTrtxGhppZVjrv-250" style="shape=tableRow;horizontal=0;startSize=0;swimlaneHead=0;swimlaneBody=0;top=0;left=0;bottom=0;right=0;dropTarget=0;collapsible=0;recursiveResize=0;expand=0;fontStyle=0;fillColor=none;strokeColor=inherit;" parent="U05u6-LTrtxGhppZVjrv-241" vertex="1">
          <mxGeometry y="125" width="331" height="63" as="geometry" />
        </mxCell>
        <mxCell id="U05u6-LTrtxGhppZVjrv-251" value="Value 7" style="connectable=0;recursiveResize=0;strokeColor=inherit;fillColor=none;align=center;whiteSpace=wrap;html=1;" parent="U05u6-LTrtxGhppZVjrv-250" vertex="1">
          <mxGeometry width="111" height="63" as="geometry">
            <mxRectangle width="111" height="63" as="alternateBounds" />
          </mxGeometry>
        </mxCell>
        <mxCell id="U05u6-LTrtxGhppZVjrv-252" value="Value 8" style="connectable=0;recursiveResize=0;strokeColor=inherit;fillColor=none;align=center;whiteSpace=wrap;html=1;" parent="U05u6-LTrtxGhppZVjrv-250" vertex="1">
          <mxGeometry x="111" width="109" height="63" as="geometry">
            <mxRectangle width="109" height="63" as="alternateBounds" />
          </mxGeometry>
        </mxCell>
        <mxCell id="U05u6-LTrtxGhppZVjrv-253" value="Value 9" style="connectable=0;recursiveResize=0;strokeColor=inherit;fillColor=none;align=center;whiteSpace=wrap;html=1;" parent="U05u6-LTrtxGhppZVjrv-250" vertex="1">
          <mxGeometry x="220" width="111" height="63" as="geometry">
            <mxRectangle width="111" height="63" as="alternateBounds" />
          </mxGeometry>
        </mxCell>
        <mxCell id="U05u6-LTrtxGhppZVjrv-254" value="" style="endArrow=classic;html=1;rounded=0;exitX=0.533;exitY=1.006;exitDx=0;exitDy=0;exitPerimeter=0;" parent="1" source="U05u6-LTrtxGhppZVjrv-68" edge="1">
          <mxGeometry width="50" height="50" relative="1" as="geometry">
            <mxPoint x="-670" y="1200" as="sourcePoint" />
            <mxPoint x="-255" y="1230" as="targetPoint" />
          </mxGeometry>
        </mxCell>
        <mxCell id="U05u6-LTrtxGhppZVjrv-255" value="" style="endArrow=classic;html=1;rounded=0;exitX=-0.019;exitY=0.81;exitDx=0;exitDy=0;exitPerimeter=0;entryX=0.866;entryY=1.012;entryDx=0;entryDy=0;entryPerimeter=0;" parent="1" source="U05u6-LTrtxGhppZVjrv-1" target="U05u6-LTrtxGhppZVjrv-201" edge="1">
          <mxGeometry width="50" height="50" relative="1" as="geometry">
            <mxPoint x="440" y="890" as="sourcePoint" />
            <mxPoint x="640" y="1460" as="targetPoint" />
            <Array as="points">
              <mxPoint x="649" y="840" />
              <mxPoint x="-380" y="840" />
              <mxPoint x="-370" y="1796" />
            </Array>
          </mxGeometry>
        </mxCell>
        <mxCell id="U05u6-LTrtxGhppZVjrv-256" value="&lt;font style=&quot;font-size: 50px;&quot;&gt;&lt;b&gt;&lt;u&gt;&lt;i&gt;LOW-FIDELITY PROTOTYPE&lt;/i&gt;&lt;/u&gt;&lt;/b&gt;&lt;/font&gt;" style="text;html=1;align=center;verticalAlign=middle;whiteSpace=wrap;rounded=0;" parent="1" vertex="1">
          <mxGeometry x="-715" y="10" width="730" height="120" as="geometry" />
        </mxCell>
        <mxCell id="U05u6-LTrtxGhppZVjrv-257" value="start" style="strokeWidth=2;html=1;shape=mxgraph.flowchart.start_2;whiteSpace=wrap;fillColor=#dae8fc;strokeColor=#6c8ebf;" parent="1" vertex="1">
          <mxGeometry x="-637" y="-915" width="40" height="40" as="geometry" />
        </mxCell>
        <mxCell id="U05u6-LTrtxGhppZVjrv-258" value="" style="ellipse;html=1;shape=endState;fillColor=#000000;strokeColor=#000000;" parent="1" vertex="1">
          <mxGeometry x="-22" y="-325" width="30" height="30" as="geometry" />
        </mxCell>
        <mxCell id="U05u6-LTrtxGhppZVjrv-259" style="edgeStyle=orthogonalEdgeStyle;rounded=0;orthogonalLoop=1;jettySize=auto;html=1;exitX=0.5;exitY=1;exitDx=0;exitDy=0;entryX=0.5;entryY=0;entryDx=0;entryDy=0;" parent="1" source="U05u6-LTrtxGhppZVjrv-261" target="U05u6-LTrtxGhppZVjrv-263" edge="1">
          <mxGeometry relative="1" as="geometry" />
        </mxCell>
        <mxCell id="U05u6-LTrtxGhppZVjrv-260" style="edgeStyle=orthogonalEdgeStyle;rounded=0;orthogonalLoop=1;jettySize=auto;html=1;exitX=1;exitY=0.5;exitDx=0;exitDy=0;entryX=0;entryY=0.5;entryDx=0;entryDy=0;" parent="1" source="U05u6-LTrtxGhppZVjrv-261" target="U05u6-LTrtxGhppZVjrv-274" edge="1">
          <mxGeometry relative="1" as="geometry" />
        </mxCell>
        <mxCell id="U05u6-LTrtxGhppZVjrv-261" value="Non-expert health worker checks the record of patient" style="rounded=1;whiteSpace=wrap;html=1;fillColor=#bac8d3;strokeColor=#23445d;" parent="1" vertex="1">
          <mxGeometry x="-637" y="-705" width="120" height="60" as="geometry" />
        </mxCell>
        <mxCell id="U05u6-LTrtxGhppZVjrv-262" value="Patient visits the field clinic" style="text;html=1;align=center;verticalAlign=middle;whiteSpace=wrap;rounded=0;fillColor=#fad9d5;strokeColor=#ae4132;" parent="1" vertex="1">
          <mxGeometry x="-587" y="-895" width="100" height="30" as="geometry" />
        </mxCell>
        <mxCell id="U05u6-LTrtxGhppZVjrv-263" value="" style="rhombus;whiteSpace=wrap;html=1;fillColor=#d0cee2;strokeColor=#56517e;" parent="1" vertex="1">
          <mxGeometry x="-597" y="-585" width="60" height="60" as="geometry" />
        </mxCell>
        <mxCell id="U05u6-LTrtxGhppZVjrv-264" style="edgeStyle=orthogonalEdgeStyle;rounded=0;orthogonalLoop=1;jettySize=auto;html=1;exitX=0.5;exitY=1;exitDx=0;exitDy=0;entryX=0.5;entryY=0;entryDx=0;entryDy=0;" parent="1" source="U05u6-LTrtxGhppZVjrv-265" target="U05u6-LTrtxGhppZVjrv-275" edge="1">
          <mxGeometry relative="1" as="geometry" />
        </mxCell>
        <mxCell id="U05u6-LTrtxGhppZVjrv-265" value="creates the new record of the patient" style="rounded=1;whiteSpace=wrap;html=1;fillColor=#d5e8d4;strokeColor=#82b366;" parent="1" vertex="1">
          <mxGeometry x="-727" y="-465" width="120" height="60" as="geometry" />
        </mxCell>
        <mxCell id="U05u6-LTrtxGhppZVjrv-266" value="checks the existing record of the patient" style="rounded=1;whiteSpace=wrap;html=1;fillColor=#d5e8d4;strokeColor=#82b366;" parent="1" vertex="1">
          <mxGeometry x="-557" y="-465" width="120" height="60" as="geometry" />
        </mxCell>
        <mxCell id="U05u6-LTrtxGhppZVjrv-267" style="edgeStyle=orthogonalEdgeStyle;rounded=0;orthogonalLoop=1;jettySize=auto;html=1;exitX=0.5;exitY=1;exitDx=0;exitDy=0;" parent="1" source="U05u6-LTrtxGhppZVjrv-263" edge="1">
          <mxGeometry relative="1" as="geometry">
            <mxPoint x="-656" y="-465" as="targetPoint" />
            <Array as="points">
              <mxPoint x="-567" y="-495" />
              <mxPoint x="-656" y="-495" />
            </Array>
          </mxGeometry>
        </mxCell>
        <mxCell id="U05u6-LTrtxGhppZVjrv-268" style="edgeStyle=orthogonalEdgeStyle;rounded=0;orthogonalLoop=1;jettySize=auto;html=1;exitX=0.5;exitY=1;exitDx=0;exitDy=0;" parent="1" source="U05u6-LTrtxGhppZVjrv-269" target="U05u6-LTrtxGhppZVjrv-261" edge="1">
          <mxGeometry relative="1" as="geometry" />
        </mxCell>
        <mxCell id="U05u6-LTrtxGhppZVjrv-269" value="Health worker logs in&amp;nbsp;" style="rounded=1;whiteSpace=wrap;html=1;fillColor=#bac8d3;strokeColor=#23445d;" parent="1" vertex="1">
          <mxGeometry x="-647" y="-815" width="120" height="60" as="geometry" />
        </mxCell>
        <mxCell id="U05u6-LTrtxGhppZVjrv-270" style="edgeStyle=orthogonalEdgeStyle;rounded=0;orthogonalLoop=1;jettySize=auto;html=1;exitX=0.5;exitY=1;exitDx=0;exitDy=0;exitPerimeter=0;entryX=0.603;entryY=0.043;entryDx=0;entryDy=0;entryPerimeter=0;" parent="1" source="U05u6-LTrtxGhppZVjrv-257" target="U05u6-LTrtxGhppZVjrv-269" edge="1">
          <mxGeometry relative="1" as="geometry" />
        </mxCell>
        <mxCell id="U05u6-LTrtxGhppZVjrv-271" style="edgeStyle=orthogonalEdgeStyle;rounded=0;orthogonalLoop=1;jettySize=auto;html=1;exitX=0.5;exitY=1;exitDx=0;exitDy=0;entryX=0.567;entryY=0.01;entryDx=0;entryDy=0;entryPerimeter=0;" parent="1" source="U05u6-LTrtxGhppZVjrv-263" target="U05u6-LTrtxGhppZVjrv-266" edge="1">
          <mxGeometry relative="1" as="geometry">
            <Array as="points">
              <mxPoint x="-567" y="-495" />
              <mxPoint x="-489" y="-495" />
            </Array>
          </mxGeometry>
        </mxCell>
        <mxCell id="U05u6-LTrtxGhppZVjrv-272" style="edgeStyle=orthogonalEdgeStyle;rounded=0;orthogonalLoop=1;jettySize=auto;html=1;exitX=0;exitY=0.5;exitDx=0;exitDy=0;entryX=1;entryY=0.5;entryDx=0;entryDy=0;" parent="1" source="U05u6-LTrtxGhppZVjrv-274" target="U05u6-LTrtxGhppZVjrv-266" edge="1">
          <mxGeometry relative="1" as="geometry" />
        </mxCell>
        <mxCell id="U05u6-LTrtxGhppZVjrv-273" style="edgeStyle=orthogonalEdgeStyle;rounded=0;orthogonalLoop=1;jettySize=auto;html=1;exitX=1;exitY=0.5;exitDx=0;exitDy=0;entryX=0;entryY=0.5;entryDx=0;entryDy=0;" parent="1" source="U05u6-LTrtxGhppZVjrv-274" target="U05u6-LTrtxGhppZVjrv-276" edge="1">
          <mxGeometry relative="1" as="geometry" />
        </mxCell>
        <mxCell id="U05u6-LTrtxGhppZVjrv-274" value="Take X-Ray picture as JPEG&amp;nbsp;" style="rounded=1;whiteSpace=wrap;html=1;fillColor=#bac8d3;strokeColor=#23445d;" parent="1" vertex="1">
          <mxGeometry x="-362" y="-705" width="120" height="60" as="geometry" />
        </mxCell>
        <mxCell id="U05u6-LTrtxGhppZVjrv-275" value="fill in the information&amp;nbsp;&lt;div&gt;1.Patient ID&lt;/div&gt;&lt;div&gt;2. Basic information&lt;/div&gt;&lt;div&gt;3. Contact information&lt;/div&gt;&lt;div&gt;4. Symptoms&lt;/div&gt;" style="rounded=1;whiteSpace=wrap;html=1;fillColor=#bac8d3;strokeColor=#23445d;" parent="1" vertex="1">
          <mxGeometry x="-847" y="-345" width="160" height="90" as="geometry" />
        </mxCell>
        <mxCell id="U05u6-LTrtxGhppZVjrv-276" value="AI checks the X-Ray" style="rounded=1;whiteSpace=wrap;html=1;fillColor=#bac8d3;strokeColor=#23445d;" parent="1" vertex="1">
          <mxGeometry x="-157" y="-705" width="120" height="60" as="geometry" />
        </mxCell>
        <mxCell id="U05u6-LTrtxGhppZVjrv-277" style="edgeStyle=orthogonalEdgeStyle;rounded=0;orthogonalLoop=1;jettySize=auto;html=1;exitX=0.5;exitY=1;exitDx=0;exitDy=0;entryX=0.5;entryY=0;entryDx=0;entryDy=0;" parent="1" source="U05u6-LTrtxGhppZVjrv-279" target="U05u6-LTrtxGhppZVjrv-283" edge="1">
          <mxGeometry relative="1" as="geometry" />
        </mxCell>
        <mxCell id="U05u6-LTrtxGhppZVjrv-278" style="edgeStyle=orthogonalEdgeStyle;rounded=0;orthogonalLoop=1;jettySize=auto;html=1;exitX=0;exitY=0.5;exitDx=0;exitDy=0;entryX=1;entryY=0.5;entryDx=0;entryDy=0;" parent="1" source="U05u6-LTrtxGhppZVjrv-279" target="U05u6-LTrtxGhppZVjrv-266" edge="1">
          <mxGeometry relative="1" as="geometry" />
        </mxCell>
        <mxCell id="U05u6-LTrtxGhppZVjrv-279" value="AI generates report" style="rounded=1;whiteSpace=wrap;html=1;fillColor=#bac8d3;strokeColor=#23445d;" parent="1" vertex="1">
          <mxGeometry x="-157" y="-605" width="120" height="60" as="geometry" />
        </mxCell>
        <mxCell id="U05u6-LTrtxGhppZVjrv-280" style="edgeStyle=orthogonalEdgeStyle;rounded=0;orthogonalLoop=1;jettySize=auto;html=1;exitX=0.5;exitY=1;exitDx=0;exitDy=0;entryX=0.5;entryY=0;entryDx=0;entryDy=0;" parent="1" source="U05u6-LTrtxGhppZVjrv-276" target="U05u6-LTrtxGhppZVjrv-279" edge="1">
          <mxGeometry relative="1" as="geometry">
            <mxPoint x="-88" y="-485" as="targetPoint" />
          </mxGeometry>
        </mxCell>
        <mxCell id="U05u6-LTrtxGhppZVjrv-281" style="edgeStyle=orthogonalEdgeStyle;rounded=0;orthogonalLoop=1;jettySize=auto;html=1;exitX=0.5;exitY=1;exitDx=0;exitDy=0;entryX=0.5;entryY=0;entryDx=0;entryDy=0;" parent="1" source="U05u6-LTrtxGhppZVjrv-283" target="U05u6-LTrtxGhppZVjrv-287" edge="1">
          <mxGeometry relative="1" as="geometry" />
        </mxCell>
        <mxCell id="U05u6-LTrtxGhppZVjrv-282" style="edgeStyle=orthogonalEdgeStyle;rounded=0;orthogonalLoop=1;jettySize=auto;html=1;exitX=0.5;exitY=1;exitDx=0;exitDy=0;entryX=0.5;entryY=0;entryDx=0;entryDy=0;" parent="1" source="U05u6-LTrtxGhppZVjrv-283" target="U05u6-LTrtxGhppZVjrv-285" edge="1">
          <mxGeometry relative="1" as="geometry" />
        </mxCell>
        <mxCell id="U05u6-LTrtxGhppZVjrv-283" value="" style="rhombus;whiteSpace=wrap;html=1;fillColor=#e1d5e7;strokeColor=#9673a6;" parent="1" vertex="1">
          <mxGeometry x="-122" y="-505" width="50" height="50" as="geometry" />
        </mxCell>
        <mxCell id="U05u6-LTrtxGhppZVjrv-284" style="edgeStyle=orthogonalEdgeStyle;rounded=0;orthogonalLoop=1;jettySize=auto;html=1;exitX=0.5;exitY=1;exitDx=0;exitDy=0;entryX=0.5;entryY=0;entryDx=0;entryDy=0;" parent="1" source="U05u6-LTrtxGhppZVjrv-285" target="U05u6-LTrtxGhppZVjrv-289" edge="1">
          <mxGeometry relative="1" as="geometry" />
        </mxCell>
        <mxCell id="U05u6-LTrtxGhppZVjrv-285" value="Suspects the pneumonia" style="rounded=1;whiteSpace=wrap;html=1;fillColor=#d5e8d4;strokeColor=#82b366;" parent="1" vertex="1">
          <mxGeometry x="-277" y="-415" width="120" height="60" as="geometry" />
        </mxCell>
        <mxCell id="U05u6-LTrtxGhppZVjrv-286" style="edgeStyle=orthogonalEdgeStyle;rounded=0;orthogonalLoop=1;jettySize=auto;html=1;exitX=0.5;exitY=1;exitDx=0;exitDy=0;entryX=0.5;entryY=0;entryDx=0;entryDy=0;" parent="1" source="U05u6-LTrtxGhppZVjrv-287" target="U05u6-LTrtxGhppZVjrv-258" edge="1">
          <mxGeometry relative="1" as="geometry" />
        </mxCell>
        <mxCell id="U05u6-LTrtxGhppZVjrv-287" value="Normal result" style="rounded=1;whiteSpace=wrap;html=1;fillColor=#d5e8d4;strokeColor=#82b366;" parent="1" vertex="1">
          <mxGeometry x="-67" y="-415" width="120" height="60" as="geometry" />
        </mxCell>
        <mxCell id="U05u6-LTrtxGhppZVjrv-288" style="edgeStyle=orthogonalEdgeStyle;rounded=0;orthogonalLoop=1;jettySize=auto;html=1;exitX=0.5;exitY=1;exitDx=0;exitDy=0;entryX=0.5;entryY=0;entryDx=0;entryDy=0;" parent="1" source="U05u6-LTrtxGhppZVjrv-289" target="U05u6-LTrtxGhppZVjrv-291" edge="1">
          <mxGeometry relative="1" as="geometry" />
        </mxCell>
        <mxCell id="U05u6-LTrtxGhppZVjrv-289" value="Clinicians review the report" style="rounded=1;whiteSpace=wrap;html=1;fillColor=#bac8d3;strokeColor=#23445d;" parent="1" vertex="1">
          <mxGeometry x="-327" y="-295" width="120" height="60" as="geometry" />
        </mxCell>
        <mxCell id="U05u6-LTrtxGhppZVjrv-290" style="edgeStyle=orthogonalEdgeStyle;rounded=0;orthogonalLoop=1;jettySize=auto;html=1;exitX=1;exitY=0.5;exitDx=0;exitDy=0;" parent="1" source="U05u6-LTrtxGhppZVjrv-291" target="U05u6-LTrtxGhppZVjrv-293" edge="1">
          <mxGeometry relative="1" as="geometry">
            <mxPoint x="-267" y="-154.6521739130435" as="targetPoint" />
          </mxGeometry>
        </mxCell>
        <mxCell id="U05u6-LTrtxGhppZVjrv-291" value="confirm diagnosis and recommends treatment" style="rounded=1;whiteSpace=wrap;html=1;fillColor=#bac8d3;strokeColor=#23445d;" parent="1" vertex="1">
          <mxGeometry x="-457" y="-185" width="120" height="60" as="geometry" />
        </mxCell>
        <mxCell id="U05u6-LTrtxGhppZVjrv-292" style="edgeStyle=orthogonalEdgeStyle;rounded=0;orthogonalLoop=1;jettySize=auto;html=1;exitX=1;exitY=0.5;exitDx=0;exitDy=0;entryX=0;entryY=0.5;entryDx=0;entryDy=0;" parent="1" source="U05u6-LTrtxGhppZVjrv-293" target="U05u6-LTrtxGhppZVjrv-294" edge="1">
          <mxGeometry relative="1" as="geometry" />
        </mxCell>
        <mxCell id="U05u6-LTrtxGhppZVjrv-293" value="Health worker applies treatment" style="rounded=1;whiteSpace=wrap;html=1;fillColor=#bac8d3;strokeColor=#23445d;" parent="1" vertex="1">
          <mxGeometry x="-237" y="-185.00217391304352" width="120" height="60" as="geometry" />
        </mxCell>
        <mxCell id="U05u6-LTrtxGhppZVjrv-294" value="" style="ellipse;html=1;shape=endState;fillColor=#000000;strokeColor=#000000;" parent="1" vertex="1">
          <mxGeometry x="-67" y="-170" width="30" height="30" as="geometry" />
        </mxCell>
        <mxCell id="U05u6-LTrtxGhppZVjrv-295" value="Decides if record is present or not" style="text;html=1;align=center;verticalAlign=middle;whiteSpace=wrap;rounded=0;fillColor=#fad9d5;strokeColor=#ae4132;" parent="1" vertex="1">
          <mxGeometry x="-527" y="-575" width="100" height="40" as="geometry" />
        </mxCell>
        <mxCell id="U05u6-LTrtxGhppZVjrv-296" value="Save the X-ray image to the record" style="text;html=1;align=center;verticalAlign=middle;whiteSpace=wrap;rounded=0;fillColor=#fad9d5;strokeColor=#ae4132;" parent="1" vertex="1">
          <mxGeometry x="-397" y="-485" width="110" height="40" as="geometry" />
        </mxCell>
        <mxCell id="U05u6-LTrtxGhppZVjrv-297" value="Save the report to the record" style="text;html=1;align=center;verticalAlign=middle;whiteSpace=wrap;rounded=0;fillColor=#fad9d5;strokeColor=#ae4132;" parent="1" vertex="1">
          <mxGeometry x="-277" y="-625" width="110" height="40" as="geometry" />
        </mxCell>
        <mxCell id="U05u6-LTrtxGhppZVjrv-298" value="health worker checks the report and decides" style="text;html=1;align=center;verticalAlign=middle;whiteSpace=wrap;rounded=0;fillColor=#fad9d5;strokeColor=#ae4132;" parent="1" vertex="1">
          <mxGeometry x="-57" y="-505" width="110" height="50" as="geometry" />
        </mxCell>
        <mxCell id="U05u6-LTrtxGhppZVjrv-299" value="End" style="text;html=1;align=center;verticalAlign=middle;whiteSpace=wrap;rounded=0;fillColor=#fad9d5;strokeColor=#ae4132;" parent="1" vertex="1">
          <mxGeometry x="23" y="-325" width="50" height="30" as="geometry" />
        </mxCell>
        <mxCell id="U05u6-LTrtxGhppZVjrv-300" value="End" style="text;html=1;align=center;verticalAlign=middle;whiteSpace=wrap;rounded=0;fillColor=#fad9d5;strokeColor=#ae4132;" parent="1" vertex="1">
          <mxGeometry x="-67" y="-125" width="50" height="30" as="geometry" />
        </mxCell>
        <mxCell id="U05u6-LTrtxGhppZVjrv-301" value="&lt;font face=&quot;Helvetica&quot; style=&quot;font-size: 50px;&quot;&gt;&lt;b&gt;&lt;u&gt;&lt;i&gt;UML behavioral diagram of Work Flow&amp;nbsp;&lt;/i&gt;&lt;/u&gt;&lt;/b&gt;&lt;/font&gt;" style="text;html=1;align=center;verticalAlign=middle;whiteSpace=wrap;rounded=0;fillColor=none;strokeColor=none;" parent="1" vertex="1">
          <mxGeometry x="-888.5" y="-1000" width="1027" height="50" as="geometry" />
        </mxCell>
        <mxCell id="rGRRH7rSquDJhVR4HHmK-1" value="&lt;div&gt;&lt;span style=&quot;background-color: transparent; color: light-dark(rgb(0, 0, 0), rgb(255, 255, 255));&quot;&gt;Here is the UML behavioral diagram of&amp;nbsp;&lt;/span&gt;&lt;/div&gt;&lt;div&gt;&lt;span style=&quot;background-color: transparent; color: light-dark(rgb(0, 0, 0), rgb(255, 255, 255));&quot;&gt;chest ray website work flow.&amp;nbsp; This&amp;nbsp;&lt;/span&gt;&lt;/div&gt;&lt;div&gt;&lt;span style=&quot;background-color: transparent; color: light-dark(rgb(0, 0, 0), rgb(255, 255, 255));&quot;&gt;describes&amp;nbsp;&lt;/span&gt;&lt;span style=&quot;background-color: transparent; color: light-dark(rgb(0, 0, 0), rgb(255, 255, 255));&quot;&gt;the working of chest ray&amp;nbsp;&lt;/span&gt;&lt;/div&gt;&lt;div&gt;&lt;span style=&quot;background-color: transparent; color: light-dark(rgb(0, 0, 0), rgb(255, 255, 255));&quot;&gt;from scratch to the end.&lt;/span&gt;&lt;/div&gt;" style="whiteSpace=wrap;html=1;shape=mxgraph.basic.oval_callout" vertex="1" parent="1">
          <mxGeometry x="-362" y="-885" width="260" height="130" as="geometry" />
        </mxCell>
        <mxCell id="rGRRH7rSquDJhVR4HHmK-2" value="Here are two end points where one end&amp;nbsp;&lt;div&gt;shows&lt;span style=&quot;background-color: transparent; color: light-dark(rgb(0, 0, 0), rgb(255, 255, 255));&quot;&gt;&amp;nbsp;that patient got normal results while other is&amp;nbsp;&lt;/span&gt;&lt;div&gt;suspected of pneumonia and needs to follow&amp;nbsp;&lt;/div&gt;&lt;div&gt;up to the doctor&lt;/div&gt;&lt;/div&gt;" style="whiteSpace=wrap;html=1;shape=mxgraph.basic.oval_callout" vertex="1" parent="1">
          <mxGeometry x="-45" y="-280" width="320" height="95" as="geometry" />
        </mxCell>
        <mxCell id="rGRRH7rSquDJhVR4HHmK-5" value="All the arrows point to the direction where next step will&lt;div&gt;&amp;nbsp;be followed&lt;/div&gt;" style="whiteSpace=wrap;html=1;shape=mxgraph.basic.oval_callout;flipV=0;flipH=1;" vertex="1" parent="1">
          <mxGeometry x="-465" y="-390" width="180" height="85" as="geometry" />
        </mxCell>
        <mxCell id="rGRRH7rSquDJhVR4HHmK-7" value="This is the Sign Up page&amp;nbsp;&lt;span style=&quot;background-color: transparent; color: light-dark(rgb(0, 0, 0), rgb(255, 255, 255));&quot;&gt;where&lt;/span&gt;&lt;div&gt;&lt;span style=&quot;background-color: transparent; color: light-dark(rgb(0, 0, 0), rgb(255, 255, 255));&quot;&gt;&amp;nbsp;any new health worker an&amp;nbsp;&lt;/span&gt;&lt;span style=&quot;background-color: transparent; color: light-dark(rgb(0, 0, 0), rgb(255, 255, 255));&quot;&gt;clinician&amp;nbsp;&lt;/span&gt;&lt;/div&gt;&lt;div&gt;&lt;span style=&quot;background-color: transparent; color: light-dark(rgb(0, 0, 0), rgb(255, 255, 255));&quot;&gt;will register themselves to follow&amp;nbsp;&lt;/span&gt;&lt;span style=&quot;background-color: transparent; color: light-dark(rgb(0, 0, 0), rgb(255, 255, 255));&quot;&gt;up&lt;/span&gt;&lt;/div&gt;&lt;div&gt;&lt;span style=&quot;background-color: transparent; color: light-dark(rgb(0, 0, 0), rgb(255, 255, 255));&quot;&gt;&amp;nbsp;for the next&lt;/span&gt;&lt;span style=&quot;background-color: transparent; color: light-dark(rgb(0, 0, 0), rgb(255, 255, 255));&quot;&gt;&amp;nbsp;steps to take&lt;/span&gt;&lt;/div&gt;" style="whiteSpace=wrap;html=1;shape=mxgraph.basic.oval_callout;fillColor=#bac8d3;strokeColor=#23445d;flipH=1;" vertex="1" parent="1">
          <mxGeometry x="-1510" y="350" width="230" height="100" as="geometry" />
        </mxCell>
        <mxCell id="rGRRH7rSquDJhVR4HHmK-12" value="&lt;b&gt;&lt;font style=&quot;font-size: 16px;&quot;&gt;&lt;u&gt;&lt;i&gt;Sign Up Page&lt;/i&gt;&lt;/u&gt;&lt;/font&gt;&lt;/b&gt;" style="text;html=1;align=center;verticalAlign=middle;whiteSpace=wrap;rounded=0;fillColor=#eeeeee;strokeColor=#36393d;" vertex="1" parent="1">
          <mxGeometry x="-1210.5" y="597.5" width="105.5" height="30" as="geometry" />
        </mxCell>
        <mxCell id="rGRRH7rSquDJhVR4HHmK-13" value="&lt;b&gt;&lt;i&gt;&lt;u&gt;&lt;font style=&quot;font-size: 19px;&quot;&gt;Login Page&lt;/font&gt;&lt;/u&gt;&lt;/i&gt;&lt;/b&gt;" style="text;html=1;align=center;verticalAlign=middle;whiteSpace=wrap;rounded=0;fillColor=#eeeeee;strokeColor=#36393d;" vertex="1" parent="1">
          <mxGeometry x="-436.25" y="597.5" width="105.5" height="30" as="geometry" />
        </mxCell>
        <mxCell id="rGRRH7rSquDJhVR4HHmK-14" value="&lt;b&gt;&lt;i&gt;&lt;u&gt;&lt;font style=&quot;font-size: 19px;&quot;&gt;Home Page&lt;/font&gt;&lt;/u&gt;&lt;/i&gt;&lt;/b&gt;" style="text;html=1;align=center;verticalAlign=middle;whiteSpace=wrap;rounded=0;fillColor=#eeeeee;strokeColor=#36393d;" vertex="1" parent="1">
          <mxGeometry x="414.5" y="620" width="105.5" height="30" as="geometry" />
        </mxCell>
        <mxCell id="rGRRH7rSquDJhVR4HHmK-15" value="&lt;b&gt;&lt;i&gt;&lt;u&gt;&lt;font style=&quot;font-size: 17px;&quot;&gt;Patient Record Page&lt;/font&gt;&lt;/u&gt;&lt;/i&gt;&lt;/b&gt;" style="text;html=1;align=center;verticalAlign=middle;whiteSpace=wrap;rounded=0;fillColor=#eeeeee;strokeColor=#36393d;" vertex="1" parent="1">
          <mxGeometry x="-840.5" y="1470" width="170.5" height="30" as="geometry" />
        </mxCell>
        <mxCell id="rGRRH7rSquDJhVR4HHmK-16" value="&lt;b&gt;&lt;i&gt;&lt;u&gt;&lt;font style=&quot;font-size: 16px;&quot;&gt;New Record Page&lt;/font&gt;&lt;/u&gt;&lt;/i&gt;&lt;/b&gt;" style="text;html=1;align=center;verticalAlign=middle;whiteSpace=wrap;rounded=0;fillColor=#eeeeee;strokeColor=#36393d;" vertex="1" parent="1">
          <mxGeometry x="53" y="1447.5" width="140.5" height="30" as="geometry" />
        </mxCell>
        <mxCell id="rGRRH7rSquDJhVR4HHmK-17" value="&lt;b&gt;&lt;i&gt;&lt;u&gt;&lt;font style=&quot;font-size: 17px;&quot;&gt;Report and X-ray Page&lt;/font&gt;&lt;/u&gt;&lt;/i&gt;&lt;/b&gt;" style="text;html=1;align=center;verticalAlign=middle;whiteSpace=wrap;rounded=0;fillColor=#eeeeee;strokeColor=#36393d;" vertex="1" parent="1">
          <mxGeometry x="-20" y="2594.38" width="185" height="30" as="geometry" />
        </mxCell>
        <mxCell id="rGRRH7rSquDJhVR4HHmK-18" value="&lt;b&gt;&lt;i&gt;&lt;u&gt;&lt;font style=&quot;font-size: 17px;&quot;&gt;Clinician Review Page&lt;/font&gt;&lt;/u&gt;&lt;/i&gt;&lt;/b&gt;" style="text;html=1;align=center;verticalAlign=middle;whiteSpace=wrap;rounded=0;fillColor=#eeeeee;strokeColor=#36393d;" vertex="1" parent="1">
          <mxGeometry x="-930" y="2624.38" width="190" height="30" as="geometry" />
        </mxCell>
        <mxCell id="rGRRH7rSquDJhVR4HHmK-19" value="This is the login page where already registered users login as non-expert&amp;nbsp;&lt;div&gt;and expert health worker&amp;nbsp;&lt;/div&gt;" style="whiteSpace=wrap;html=1;shape=mxgraph.basic.oval_callout;flipH=1;fillColor=#bac8d3;strokeColor=#23445d;" vertex="1" parent="1">
          <mxGeometry x="-760" y="330" width="230" height="100" as="geometry" />
        </mxCell>
        <mxCell id="rGRRH7rSquDJhVR4HHmK-20" value="The details for the&amp;nbsp;&lt;div&gt;registration&lt;div&gt;&amp;nbsp;of workers will be their full&lt;/div&gt;&lt;div&gt;&amp;nbsp;name, their email ID&amp;nbsp;&lt;/div&gt;&lt;div&gt;and Password.&amp;nbsp;&lt;/div&gt;&lt;/div&gt;" style="whiteSpace=wrap;html=1;shape=mxgraph.basic.oval_callout;fillColor=#f5f5f5;gradientColor=#b3b3b3;strokeColor=#666666;" vertex="1" parent="1">
          <mxGeometry x="-995" y="280" width="180" height="110" as="geometry" />
        </mxCell>
        <mxCell id="rGRRH7rSquDJhVR4HHmK-21" value="The details for login into&lt;div&gt;&amp;nbsp;the account&lt;span style=&quot;background-color: transparent; color: light-dark(rgb(0, 0, 0), rgb(255, 255, 255));&quot;&gt;&amp;nbsp;of workers will be&amp;nbsp;&lt;/span&gt;&lt;span style=&quot;background-color: transparent; color: light-dark(rgb(0, 0, 0), rgb(255, 255, 255));&quot;&gt;their email&amp;nbsp;&lt;/span&gt;&lt;span style=&quot;background-color: transparent; color: light-dark(rgb(0, 0, 0), rgb(255, 255, 255));&quot;&gt;ID&amp;nbsp;&lt;/span&gt;&lt;span style=&quot;background-color: transparent; color: light-dark(rgb(0, 0, 0), rgb(255, 255, 255));&quot;&gt;and&amp;nbsp;&lt;/span&gt;&lt;/div&gt;&lt;div&gt;&lt;span style=&quot;background-color: transparent; color: light-dark(rgb(0, 0, 0), rgb(255, 255, 255));&quot;&gt;Password used&amp;nbsp;&lt;/span&gt;&lt;span style=&quot;background-color: transparent; color: light-dark(rgb(0, 0, 0), rgb(255, 255, 255));&quot;&gt;for the registration.&amp;nbsp;&lt;/span&gt;&lt;/div&gt;" style="whiteSpace=wrap;html=1;shape=mxgraph.basic.oval_callout;fillColor=#f5f5f5;gradientColor=#b3b3b3;strokeColor=#666666;" vertex="1" parent="1">
          <mxGeometry x="-223" y="280" width="180" height="110" as="geometry" />
        </mxCell>
        <mxCell id="rGRRH7rSquDJhVR4HHmK-22" value="This will be the first page to&lt;div&gt;&amp;nbsp;show&lt;span style=&quot;background-color: transparent; color: light-dark(rgb(0, 0, 0), rgb(255, 255, 255));&quot;&gt;&amp;nbsp;up and if person is the user&amp;nbsp;&lt;/span&gt;&lt;/div&gt;&lt;div&gt;&lt;span style=&quot;background-color: transparent; color: light-dark(rgb(0, 0, 0), rgb(255, 255, 255));&quot;&gt;it can&#39;t login into the account&amp;nbsp;&lt;/span&gt;&lt;span style=&quot;background-color: transparent; color: light-dark(rgb(0, 0, 0), rgb(255, 255, 255));&quot;&gt;for&amp;nbsp;&lt;/span&gt;&lt;/div&gt;&lt;div&gt;&lt;span style=&quot;background-color: transparent; color: light-dark(rgb(0, 0, 0), rgb(255, 255, 255));&quot;&gt;the security purposes&lt;/span&gt;&lt;/div&gt;" style="whiteSpace=wrap;html=1;shape=mxgraph.basic.oval_callout;fillColor=#f5f5f5;gradientColor=#b3b3b3;strokeColor=#666666;" vertex="1" parent="1">
          <mxGeometry x="-227" y="430" width="220" height="100" as="geometry" />
        </mxCell>
        <mxCell id="rGRRH7rSquDJhVR4HHmK-23" value="This is the main HOME page of the website with so many&amp;nbsp;&lt;div&gt;features of navigation to the other pages of the website.&amp;nbsp;&lt;/div&gt;&lt;div&gt;Firstly it welcomes the user to Chest Ray and and will&lt;/div&gt;&lt;div&gt;&amp;nbsp;also inform the purpose of the web app.&lt;/div&gt;" style="whiteSpace=wrap;html=1;shape=mxgraph.basic.oval_callout;fillColor=#bac8d3;strokeColor=#23445d;" vertex="1" parent="1">
          <mxGeometry x="223" y="60" width="380" height="120" as="geometry" />
        </mxCell>
        <mxCell id="rGRRH7rSquDJhVR4HHmK-24" value="Here chest ray logo will be placed" style="whiteSpace=wrap;html=1;shape=mxgraph.basic.oval_callout;flipH=1;fillColor=#f5f5f5;gradientColor=#b3b3b3;strokeColor=#666666;" vertex="1" parent="1">
          <mxGeometry x="-30" y="180" width="180" height="50" as="geometry" />
        </mxCell>
        <mxCell id="rGRRH7rSquDJhVR4HHmK-25" value="A welcome message with relevant picture of&amp;nbsp;&lt;div&gt;pneumonia&lt;/div&gt;" style="whiteSpace=wrap;html=1;shape=mxgraph.basic.oval_callout;flipH=1;fillColor=#f5f5f5;gradientColor=#b3b3b3;strokeColor=#666666;" vertex="1" parent="1">
          <mxGeometry x="-4.5" y="280" width="173" height="70" as="geometry" />
        </mxCell>
        <mxCell id="rGRRH7rSquDJhVR4HHmK-26" value="Navigation bar to direct to the&lt;div&gt;&amp;nbsp;other pages of the website&lt;/div&gt;" style="whiteSpace=wrap;html=1;shape=mxgraph.basic.oval_callout;fillColor=#f5f5f5;gradientColor=#b3b3b3;strokeColor=#666666;" vertex="1" parent="1">
          <mxGeometry x="720" y="200" width="210" height="60" as="geometry" />
        </mxCell>
        <mxCell id="rGRRH7rSquDJhVR4HHmK-27" value="All the possible pages navigation&amp;nbsp;&lt;div&gt;when clicking the button it navigates&lt;/div&gt;&lt;div&gt;&amp;nbsp;to the those pages&lt;/div&gt;" style="whiteSpace=wrap;html=1;shape=mxgraph.basic.oval_callout;fillColor=#f5f5f5;gradientColor=#b3b3b3;strokeColor=#666666;" vertex="1" parent="1">
          <mxGeometry x="700" y="340" width="230" height="80" as="geometry" />
        </mxCell>
        <mxCell id="rGRRH7rSquDJhVR4HHmK-28" value="About us message&amp;nbsp;&lt;div&gt;informing about website and&amp;nbsp;&lt;div&gt;pneumonia&lt;/div&gt;&lt;/div&gt;" style="whiteSpace=wrap;html=1;shape=mxgraph.basic.oval_callout;flipH=1;fillColor=#f5f5f5;gradientColor=#b3b3b3;strokeColor=#666666;" vertex="1" parent="1">
          <mxGeometry x="-20" y="410" width="186" height="70" as="geometry" />
        </mxCell>
        <mxCell id="rGRRH7rSquDJhVR4HHmK-29" value="Footer of web page with clinicians information,&amp;nbsp;&lt;div&gt;contact and about us details with contact helpline&amp;nbsp;&lt;/div&gt;&lt;div&gt;and email ID of chest ray&lt;/div&gt;" style="whiteSpace=wrap;html=1;shape=mxgraph.basic.oval_callout;fillColor=#f5f5f5;gradientColor=#b3b3b3;strokeColor=#666666;" vertex="1" parent="1">
          <mxGeometry x="690" y="510" width="310" height="80" as="geometry" />
        </mxCell>
        <mxCell id="rGRRH7rSquDJhVR4HHmK-30" value="Arrows showing the&amp;nbsp;&lt;div&gt;navigation flow directions&amp;nbsp;&lt;/div&gt;&lt;div&gt;of pages&amp;nbsp;&lt;/div&gt;" style="whiteSpace=wrap;html=1;shape=mxgraph.basic.oval_callout;flipH=1;fillColor=#f5f5f5;gradientColor=#b3b3b3;strokeColor=#666666;" vertex="1" parent="1">
          <mxGeometry x="-992.5" y="750" width="170" height="70" as="geometry" />
        </mxCell>
        <mxCell id="rGRRH7rSquDJhVR4HHmK-31" value="Patient Record page is for the non-expert health workers to&amp;nbsp;&lt;div&gt;direct&amp;nbsp;&lt;span style=&quot;background-color: transparent; color: light-dark(rgb(0, 0, 0), rgb(255, 255, 255));&quot;&gt;them to the Patient record individually and check whether&amp;nbsp;&lt;/span&gt;&lt;/div&gt;&lt;div&gt;&lt;span style=&quot;background-color: transparent; color: light-dark(rgb(0, 0, 0), rgb(255, 255, 255));&quot;&gt;record&amp;nbsp;&lt;/span&gt;&lt;span style=&quot;background-color: transparent; color: light-dark(rgb(0, 0, 0), rgb(255, 255, 255));&quot;&gt;is already present or needs to create a new record with some&amp;nbsp;&lt;/span&gt;&lt;div&gt;summary of total cases with pneumonia and emergency cases for&amp;nbsp;&lt;/div&gt;&lt;div&gt;clinicians to review as it will be saved on clinician review page for&amp;nbsp;&lt;/div&gt;&lt;div&gt;clinicians to get to know the general idea of the cases and&lt;/div&gt;&lt;div&gt;&amp;nbsp;recommend treatment.&lt;/div&gt;&lt;/div&gt;" style="whiteSpace=wrap;html=1;shape=mxgraph.basic.oval_callout;flipH=1;fillColor=#bac8d3;strokeColor=#23445d;" vertex="1" parent="1">
          <mxGeometry x="-1472" y="830" width="420" height="220" as="geometry" />
        </mxCell>
        <mxCell id="rGRRH7rSquDJhVR4HHmK-32" value="search bar to search the record if&amp;nbsp;&lt;div&gt;it is already present or not&lt;/div&gt;" style="whiteSpace=wrap;html=1;shape=mxgraph.basic.oval_callout;flipH=1;fillColor=#f5f5f5;gradientColor=#b3b3b3;strokeColor=#666666;" vertex="1" parent="1">
          <mxGeometry x="-1260" y="1094.88" width="203.25" height="60" as="geometry" />
        </mxCell>
        <mxCell id="rGRRH7rSquDJhVR4HHmK-33" value="Patient records present on the screen with&lt;div&gt;Patient ID for better recognition&lt;/div&gt;" style="whiteSpace=wrap;html=1;shape=mxgraph.basic.oval_callout;flipH=1;fillColor=#f5f5f5;gradientColor=#b3b3b3;strokeColor=#666666;" vertex="1" parent="1">
          <mxGeometry x="-1310" y="1210" width="270" height="60" as="geometry" />
        </mxCell>
        <mxCell id="rGRRH7rSquDJhVR4HHmK-34" value="New record button to&amp;nbsp;&lt;div&gt;create now record as it directs the user to the&amp;nbsp;&lt;/div&gt;&lt;div&gt;new record page&lt;/div&gt;" style="whiteSpace=wrap;html=1;shape=mxgraph.basic.oval_callout;fillColor=#f5f5f5;gradientColor=#b3b3b3;strokeColor=#666666;" vertex="1" parent="1">
          <mxGeometry x="-500" y="1050" width="155" height="100" as="geometry" />
        </mxCell>
        <mxCell id="rGRRH7rSquDJhVR4HHmK-35" value="&lt;div&gt;&lt;br&gt;&lt;/div&gt;Summary of cases&amp;nbsp;&lt;div&gt;registered&amp;nbsp;&lt;span style=&quot;background-color: transparent; color: light-dark(rgb(0, 0, 0), rgb(255, 255, 255));&quot;&gt;in some specific period&amp;nbsp;&lt;/span&gt;&lt;/div&gt;&lt;div&gt;&lt;span style=&quot;background-color: transparent; color: light-dark(rgb(0, 0, 0), rgb(255, 255, 255));&quot;&gt;for clinician to review to get&lt;/span&gt;&lt;/div&gt;&lt;div&gt;&lt;span style=&quot;background-color: transparent; color: light-dark(rgb(0, 0, 0), rgb(255, 255, 255));&quot;&gt;&amp;nbsp;the general idea&lt;/span&gt;&lt;/div&gt;" style="whiteSpace=wrap;html=1;shape=mxgraph.basic.oval_callout;flipV=1;fillColor=#f5f5f5;gradientColor=#b3b3b3;strokeColor=#666666;" vertex="1" parent="1">
          <mxGeometry x="-660" y="1310" width="220" height="80" as="geometry" />
        </mxCell>
        <mxCell id="rGRRH7rSquDJhVR4HHmK-36" value="New record page is for the patients who are&amp;nbsp;&lt;div&gt;&lt;span style=&quot;background-color: transparent; color: light-dark(rgb(0, 0, 0), rgb(255, 255, 255));&quot;&gt;not already registered and basic information will&amp;nbsp;&lt;/span&gt;&lt;span style=&quot;background-color: transparent; color: light-dark(rgb(0, 0, 0), rgb(255, 255, 255));&quot;&gt;be filled out.&lt;/span&gt;&lt;/div&gt;&lt;div&gt;&lt;span style=&quot;background-color: transparent; color: light-dark(rgb(0, 0, 0), rgb(255, 255, 255));&quot;&gt;&amp;nbsp;Then their X-ray images and&amp;nbsp;&lt;/span&gt;&lt;span style=&quot;background-color: transparent; color: light-dark(rgb(0, 0, 0), rgb(255, 255, 255));&quot;&gt;report generation&amp;nbsp;&lt;/span&gt;&lt;/div&gt;&lt;div&gt;&lt;span style=&quot;background-color: transparent; color: light-dark(rgb(0, 0, 0), rgb(255, 255, 255));&quot;&gt;process will be proceed.&lt;/span&gt;&lt;/div&gt;" style="whiteSpace=wrap;html=1;shape=mxgraph.basic.oval_callout;fillColor=#bac8d3;strokeColor=#23445d;" vertex="1" parent="1">
          <mxGeometry x="90" y="860" width="370" height="100" as="geometry" />
        </mxCell>
        <mxCell id="rGRRH7rSquDJhVR4HHmK-37" value="Personal information like&lt;div&gt;name age and address&amp;nbsp;&lt;div&gt;filled out while Patient ID&amp;nbsp;&lt;/div&gt;&lt;div&gt;will be given by health&amp;nbsp;&lt;/div&gt;&lt;div&gt;worker&lt;/div&gt;&lt;/div&gt;" style="whiteSpace=wrap;html=1;shape=mxgraph.basic.oval_callout;flipH=0;fillColor=#f5f5f5;gradientColor=#b3b3b3;strokeColor=#666666;" vertex="1" parent="1">
          <mxGeometry x="350" y="1010" width="200" height="120" as="geometry" />
        </mxCell>
        <mxCell id="rGRRH7rSquDJhVR4HHmK-39" value="Contact information like&amp;nbsp;&lt;div&gt;email and phone&amp;nbsp;&lt;/div&gt;&lt;div&gt;number recorded for later contacts&lt;/div&gt;" style="whiteSpace=wrap;html=1;shape=mxgraph.basic.oval_callout;flipH=1;fillColor=#f5f5f5;gradientColor=#b3b3b3;strokeColor=#666666;" vertex="1" parent="1">
          <mxGeometry x="-360" y="1090" width="178" height="100" as="geometry" />
        </mxCell>
        <mxCell id="rGRRH7rSquDJhVR4HHmK-40" value="Symptoms will be recorded told&lt;div&gt;&amp;nbsp;b&lt;span style=&quot;background-color: transparent; color: light-dark(rgb(0, 0, 0), rgb(255, 255, 255));&quot;&gt;y&lt;/span&gt;&lt;span style=&quot;background-color: transparent; color: light-dark(rgb(0, 0, 0), rgb(255, 255, 255));&quot;&gt;&amp;nbsp;the patients and examining by&amp;nbsp;&lt;/span&gt;&lt;div&gt;&lt;div&gt;health worker&lt;/div&gt;&lt;/div&gt;&lt;/div&gt;" style="whiteSpace=wrap;html=1;shape=mxgraph.basic.oval_callout;fillColor=#f5f5f5;gradientColor=#b3b3b3;strokeColor=#666666;" vertex="1" parent="1">
          <mxGeometry x="366" y="1200" width="214" height="105" as="geometry" />
        </mxCell>
        <mxCell id="rGRRH7rSquDJhVR4HHmK-41" value="&lt;div&gt;&lt;br&gt;&lt;/div&gt;Summary of cases&amp;nbsp;&lt;div&gt;registered&amp;nbsp;&lt;span style=&quot;background-color: transparent; color: light-dark(rgb(0, 0, 0), rgb(255, 255, 255));&quot;&gt;in some specific period&amp;nbsp;&lt;/span&gt;&lt;/div&gt;&lt;div&gt;&lt;span style=&quot;background-color: transparent; color: light-dark(rgb(0, 0, 0), rgb(255, 255, 255));&quot;&gt;of total cases, pneumonia suspected&amp;nbsp;&lt;/span&gt;&lt;/div&gt;&lt;div&gt;&lt;span style=&quot;background-color: transparent; color: light-dark(rgb(0, 0, 0), rgb(255, 255, 255));&quot;&gt;cases and emergency cases&lt;/span&gt;&lt;/div&gt;" style="whiteSpace=wrap;html=1;shape=mxgraph.basic.oval_callout;flipV=1;fillColor=#f5f5f5;gradientColor=#b3b3b3;strokeColor=#666666;" vertex="1" parent="1">
          <mxGeometry x="-690.25" y="2021.88" width="235" height="120" as="geometry" />
        </mxCell>
        <mxCell id="rGRRH7rSquDJhVR4HHmK-42" value="A table showing the data of the patients&lt;div&gt;&amp;nbsp;needs to be reviewed by the clinician with&amp;nbsp;&lt;/div&gt;&lt;div&gt;review buttons having blocks like ID, age,&amp;nbsp;&lt;/div&gt;&lt;div&gt;name and report of patient&lt;/div&gt;" style="whiteSpace=wrap;html=1;shape=mxgraph.basic.oval_callout;flipH=1;fillColor=#f5f5f5;gradientColor=#b3b3b3;strokeColor=#666666;" vertex="1" parent="1">
          <mxGeometry x="-1386" y="1871.88" width="285" height="120" as="geometry" />
        </mxCell>
        <mxCell id="rGRRH7rSquDJhVR4HHmK-43" value="X-ray image shown when clinician press&lt;div&gt;&amp;nbsp;the review button in the table of patient with relevant ID&lt;/div&gt;" style="whiteSpace=wrap;html=1;shape=mxgraph.basic.oval_callout;flipH=1;fillColor=#f5f5f5;gradientColor=#b3b3b3;strokeColor=#666666;" vertex="1" parent="1">
          <mxGeometry x="-1400" y="2160" width="281" height="100" as="geometry" />
        </mxCell>
        <mxCell id="rGRRH7rSquDJhVR4HHmK-44" value="Report of the patient showing&amp;nbsp;&lt;div&gt;prediction and confidence&amp;nbsp;&lt;/div&gt;&lt;div&gt;percentage&lt;/div&gt;" style="whiteSpace=wrap;html=1;shape=mxgraph.basic.oval_callout;fillColor=#f5f5f5;gradientColor=#b3b3b3;strokeColor=#666666;" vertex="1" parent="1">
          <mxGeometry x="-790" y="2300" width="220" height="80" as="geometry" />
        </mxCell>
        <mxCell id="rGRRH7rSquDJhVR4HHmK-45" value="Treatment recommended&amp;nbsp;&lt;div&gt;by&amp;nbsp;&lt;span style=&quot;background-color: transparent; color: light-dark(rgb(0, 0, 0), rgb(255, 255, 255));&quot;&gt;the clinician and save button&amp;nbsp;&lt;/span&gt;&lt;div&gt;to save in relevant patient&amp;nbsp;&lt;/div&gt;&lt;div&gt;record&lt;/div&gt;&lt;/div&gt;" style="whiteSpace=wrap;html=1;shape=mxgraph.basic.oval_callout;fillColor=#f5f5f5;gradientColor=#b3b3b3;strokeColor=#666666;" vertex="1" parent="1">
          <mxGeometry x="-570" y="2390" width="200" height="90" as="geometry" />
        </mxCell>
        <mxCell id="rGRRH7rSquDJhVR4HHmK-46" value="Clinician Review page is specified for clinicians&amp;nbsp;&lt;div&gt;where clinicians review the patients X-rays and AI&amp;nbsp;&lt;/div&gt;&lt;div&gt;generated reports. After review, recommend the suitable treatments. Summary of cases is present to review&amp;nbsp;&lt;/div&gt;&lt;div&gt;and analyze the frequency of virus and&amp;nbsp;&lt;/div&gt;&lt;div&gt;recommend safety measures&lt;/div&gt;" style="whiteSpace=wrap;html=1;shape=mxgraph.basic.oval_callout;flipH=1;fillColor=#bac8d3;strokeColor=#23445d;" vertex="1" parent="1">
          <mxGeometry x="-1390" y="1570" width="360" height="170" as="geometry" />
        </mxCell>
        <mxCell id="rGRRH7rSquDJhVR4HHmK-47" value="X-ray image upload and report generated on&lt;div&gt;&amp;nbsp;this page. Machine learning model will be trained&amp;nbsp;&lt;/div&gt;&lt;div&gt;and reports generated will be saved in the records.&amp;nbsp;&lt;/div&gt;&lt;div&gt;Then will be reviewed by the clinicians&amp;nbsp;&lt;/div&gt;" style="whiteSpace=wrap;html=1;shape=mxgraph.basic.oval_callout;fillColor=#bac8d3;strokeColor=#23445d;" vertex="1" parent="1">
          <mxGeometry x="183" y="1550" width="317" height="140" as="geometry" />
        </mxCell>
        <mxCell id="rGRRH7rSquDJhVR4HHmK-48" value="Personal information displayed filled during record creation" style="whiteSpace=wrap;html=1;shape=mxgraph.basic.oval_callout;fillColor=#f5f5f5;gradientColor=#b3b3b3;strokeColor=#666666;" vertex="1" parent="1">
          <mxGeometry x="320" y="1850" width="230" height="60" as="geometry" />
        </mxCell>
        <mxCell id="rGRRH7rSquDJhVR4HHmK-49" value="Contact information displayed" style="whiteSpace=wrap;html=1;shape=mxgraph.basic.oval_callout;flipH=1;fillColor=#f5f5f5;gradientColor=#b3b3b3;strokeColor=#666666;" vertex="1" parent="1">
          <mxGeometry x="-337" y="1943.12" width="137" height="60" as="geometry" />
        </mxCell>
        <mxCell id="rGRRH7rSquDJhVR4HHmK-50" value="Symptoms of the patient recorded displayed" style="whiteSpace=wrap;html=1;shape=mxgraph.basic.oval_callout;fillColor=#f5f5f5;gradientColor=#b3b3b3;strokeColor=#666666;" vertex="1" parent="1">
          <mxGeometry x="333" y="2036.88" width="177" height="60" as="geometry" />
        </mxCell>
        <mxCell id="rGRRH7rSquDJhVR4HHmK-51" value="Image of the X-ray to be uploaded&amp;nbsp;" style="whiteSpace=wrap;html=1;shape=mxgraph.basic.oval_callout;flipH=1;fillColor=#f5f5f5;gradientColor=#b3b3b3;strokeColor=#666666;" vertex="1" parent="1">
          <mxGeometry x="-361.22" y="2180" width="170" height="60" as="geometry" />
        </mxCell>
        <mxCell id="rGRRH7rSquDJhVR4HHmK-52" value="File chose from device and then&lt;div&gt;&amp;nbsp;uploaded by using Upload Image&amp;nbsp;&lt;/div&gt;&lt;div&gt;button&amp;nbsp;&lt;/div&gt;" style="whiteSpace=wrap;html=1;shape=mxgraph.basic.oval_callout;fillColor=#f5f5f5;gradientColor=#b3b3b3;strokeColor=#666666;flipH=1;" vertex="1" parent="1">
          <mxGeometry x="-425" y="2270" width="240" height="100" as="geometry" />
        </mxCell>
        <mxCell id="rGRRH7rSquDJhVR4HHmK-53" value="Report generated showing Result prediction&lt;div&gt;&amp;nbsp;and percentage using AI model after&amp;nbsp;&lt;div&gt;analyzing X-ray image and save it using save&amp;nbsp;&lt;/div&gt;&lt;div&gt;button for clinician review&lt;/div&gt;&lt;/div&gt;" style="whiteSpace=wrap;html=1;shape=mxgraph.basic.oval_callout;fillColor=#f5f5f5;gradientColor=#b3b3b3;strokeColor=#666666;" vertex="1" parent="1">
          <mxGeometry x="320" y="2121.88" width="310" height="121.88" as="geometry" />
        </mxCell>
        <mxCell id="rGRRH7rSquDJhVR4HHmK-54" value="Clinician review to be displayed after clinician review the image and report&amp;nbsp;&lt;div&gt;and recommends treatment&lt;/div&gt;" style="whiteSpace=wrap;html=1;shape=mxgraph.basic.oval_callout;fillColor=#f5f5f5;gradientColor=#b3b3b3;strokeColor=#666666;" vertex="1" parent="1">
          <mxGeometry x="330" y="2334.06" width="237" height="121.88" as="geometry" />
        </mxCell>
        <mxCell id="rGRRH7rSquDJhVR4HHmK-55" value="&lt;b&gt;&lt;i&gt;&lt;font style=&quot;font-size: 60px;&quot;&gt;&lt;u&gt;CHEST RAY WEB APPLICATION&lt;/u&gt;&lt;/font&gt;&lt;/i&gt;&lt;/b&gt;" style="text;html=1;align=center;verticalAlign=middle;whiteSpace=wrap;rounded=0;" vertex="1" parent="1">
          <mxGeometry x="-847" y="-1220" width="1115" height="210" as="geometry" />
        </mxCell>
      </root>
    </mxGraphModel>
  </diagram>
</mxfile>
